<svg id="Layer_1" data-name="Layer 1" xmlns="http://www.w3.org/2000/svg" viewBox="0 0 1080 1080"><defs><style>.cls-1{fill:#3e3338;}</style></defs><title>warehouse-goods</title><path class="cls-1" d="M958.78,509.55c3.48,2.35,2.18,6,2,9-.27,4,1.22,5.76,4.89,7,20.64,7.18,41.17,14.65,61.78,21.88,8.78,3.08,11.53,7.32,10.88,16.57-1,13.56-1.62,27.14-2.42,40.71-.08,1.32-.37,2.64-.33,4,.26,8.85-4.53,12.39-12.81,12.34-1.69.3-3.53-.57-5.1.65-3.65.57-1.22,3.28-1.75,5l.42,1.4.58,8.6.09,1.45.87,5.55c-.07.64.19.92.84.78,3.33.7,5-.67,4.72-4.45,1.41,3.78,1.48,6.49-3.27,6.54-2.26,0-3.58-.61-3.79-3.19-.49-5.95-1.37-11.86-1.78-17.81-.18-2.69-.9-3.29-3.62-2.87-17.21,2.64-34.45,5.06-51.68,7.57q-36.43,5.31-72.85,10.65c-23.29,3.45-46.56,7-69.86,10.5q-32.47,4.81-65,9.46c-4.08.59-8.69.73-12,2.34-4.17,2-7.12-.33-10.7-.5-.72,8.49,1.4,16.62,1,25.3,3.81-3.46,6.54,3.31,9.93.33-2.75,3.56-5.91,1.2-9.51.33.74,11.39,1.47,22.61,2.21,33.83,1.49,22.7,3.15,45.38,4.31,68.1.22,4.38,1.53,6.83,4.46,10.23,10.16,11.77,19.21,24.5,28.69,36.86,2.61,3.4,5.45,6.65,7.77,10.24,3.2,5,6.1,10,10.72,14,2.79,2.42,1.85,6.73-.77,7.87.85-1.6-2.06-2.24-1.29-2.91,2.28-2,.39-3.28-.16-5-1.77-5.66-6.68-8.77-10.09-13.09-10.16-12.88-20.9-25.41-29.79-39.13-6.72-10.37-15-12.32-25.79-10.18a13,13,0,0,0-1.95.37c-1.63.6-5.57-1.74-3.93,3.21.34,1-1.52.75-2.42.85q-36.13,4-72.26,7.93c-27.73,3-55.42,6.47-83.22,8.5-12.28.89-24.34,6.26-37.37,1-5.25-2.11-12.77-.05-18.93,2.35-2.72,1.06-3.91,2.5-2.67,5.66,4.95,12.6,9.68,25.27,14.52,37.91,3.48,9.08,8,17.91,10.17,27.29,1.52,6.64,5.31,6.69,10,7a25.46,25.46,0,0,0,5-.24c9.55-1.19,19.08-2.51,28.63-3.64,23.72-2.8,47.46-5.48,71.18-8.34,1.72-.21,5.56.68,3.5-3.72-.51-1.1,1.15-1.55,1.85-1.63a61.78,61.78,0,0,1,6.75-.08l-2.82.77c-1.15.32-3.17-.38-3,1.62.19,2.42,2.34,1.26,3.51,1.13,13.82-1.55,27.62-3.11,41.47-4.43,24.44-2.33,48.82-5.39,73.16-8.58,8.74-1.15,17.87-.61,26.09-4.75-1,2.77-2.1,3.66-5.64,4.09-13.93,1.7-27.85,3.42-41.79,5-10.08,1.14-20.19,1.93-30.27,3.09-7.16.82-14.26,2.13-21.41,3-14.48,1.74-29,3-43.45,5.06-14.19,2.07-28.46,3.18-42.68,4.91q-31.82,3.88-63.58,8.16a41.87,41.87,0,0,1-11.42-.13c-3.43-.48-5.74-2.22-7.09-5.9-7.78-21.25-15.85-42.4-23.82-63.58a13.89,13.89,0,0,1-1.09-3.26c-1.37-13-2.78-26.07-3.53-39.17-1.46-25.52-3.17-51-5-76.54-1.13-16.18-1.7-32.4-3.41-48.55-.88-8.33,4.27-12.9,12.67-13.36,15.38-.84,30.73-2.31,46.09-3.52l68.34-5.38c9.4-.74,18.83-1.24,28.19-2.29,2.91-.33,5.33.87,6.8,1-28.79,2.28-58.8,4.66-88.81,7-19.35,1.52-38.7,3.11-58.07,4.49-8.86.63-13.38,4.68-12.93,13.55,1,19.22,2.51,38.41,3.73,57.62q2.7,42.54,5.28,85.08c.09,1.49.21,3,.41,4.47.85,6.37,1.89,7,8.22,6.13,23.7-3.15,47.46-5.75,71.24-8.13,20-2,40-4.3,59.93-6.42,25.09-2.67,50.17-5.59,75.31-7.76,7.07-.61,14.13-1.88,21.25-1.7,2.52.06,3-1.21,3.35-3.22,1.34-6.64-.06-13.21-.46-19.78-1.55-25.87-3.4-51.72-5.13-77.58q-1.5-22.33-3-44.67c-.83-12.48-4.5-15.32-17.17-14.17-17,1.55-34.1,2.77-51.16,4.08a9.89,9.89,0,0,1-5.82-1.06c6.46-.54,12.92-1,19.37-1.67,1.88-.19,4.79,1.2,5.18-2.21.36-3.12,2.83-6.94-2.31-8.73-.67-.23-1.1-1.13-1.64-1.72l.36-.43a13,13,0,0,1,7.82,5.18c-2.86,0-1.71,2.63-2.42,4-.47.9-1.29,2.81.6,3.24,1.47.34,3.52.31,4.42-1.12.65-1,1-2.88-.62-3.86-1-.59-2.09-1-2.1-2.36,2-.23,3.46.91,4.76,2a16.11,16.11,0,0,0,14.4,3.83c1.35-1.86,3.61.84,5-1a35.59,35.59,0,0,0,9.94-.38,10.53,10.53,0,0,1,12.23,8.21c.48,2.09.79,4.23,1.18,6.34-.1,2-.27,4-.28,5.94,0,4.15,1.47,6.61,6.16,5.32l1.8.1c.46.46.71.11,1-.25,1.48-.18,3-.32,4.45-.54,21.33-3.17,42.66-6.39,64-9.52,24-3.52,48-6.92,71.91-10.46,25.6-3.79,51.19-7.73,76.79-11.52q37.91-5.62,75.85-11.06c1.59-.23,3-.36,3-2.45,0-3.61,1.17-7.13,1.48-10.56,1.32-14.56,1.7-29.2,2.45-43.81.27-5.26-2.34-8.91-7-10.58-22.72-8.22-45.52-16.22-69-24.52a131.84,131.84,0,0,1,.65,19.27c-.1,4.65.18,9.36-.43,13.95-.35,2.63.31,3.53,2.54,4.32,4.12,1.45,8.15,3.14,12.22,4.73l-.5,1.25c-3.63-1.34-7.32-2.57-10.89-4.07-3.11-1.31-8.66-1.26-4.71-7.25.08-.12,0-.33,0-.49-.11-14.49-.31-29-.24-43.47a4.7,4.7,0,0,0-1.46-3.36Zm-430.2,312,0,.22c12.36-1.38,24.72-2.82,37.08-4.13q41.07-4.37,82.16-8.65,30.19-3.19,60.36-6.47c1.38-.15,4.11.92,3.75-1.63-.28-2-2.84-1-4.33-.85-7.92.83-15.81,1.89-23.72,2.73q-36.87,3.91-73.75,7.71l-60.87,6.37c-7.76.81-15.51,1.61-23.26,2.52-.87.1-2.66-.41-2.29,1.58.25,1.35,1.4,1.14,2.4,1C526.95,821.82,527.76,821.68,528.58,821.55Z"/><path class="cls-1" d="M250.07,845.12c1,4.18,8.29,6,11.82,2.93,3.24-2.87,6.38-5.85,9.45-8.9,4.82-4.8,10.9-7.62,16.69-10.9.86-.48,1.88-.74,2.07-2-4.22-1.25-8.46-2.44-12.65-3.77-2.34-.74-4.46-1.77-4.74,2.21-.14,1.95-1.7,2.75-4,1.78.62-1.7,3.42-2.19,2.77-4.54-.73-2.62-3.23-2-4.94-2.51Q202.6,800.52,138.6,781.77a76,76,0,0,1-8.44-2.78c-11.35-4.85-21-.67-30.1,5.73-4.73,3.32-9.17,7.08-13.7,10.67-3,2.37-10.39,1.91-13-.82a2.41,2.41,0,0,1-.4-3.1c1.86-4.07,11.06-11.76,16.51-13.31-1.27,3.11-4.26,3.82-6.14,5.64-1.54,1.49-3.59,2.49-4.94,4.11s-5.19,3-2.94,5.13a6.86,6.86,0,0,0,9.11.7c3.78-3,7.75-5.68,11.37-8.81,5.25-4.54,11.51-7.13,18.86-10-5.53-1.8-10.08-3.34-14.67-4.76-1.67-.52-1.87.92-2.18,2-.63,2.26-1.75,3.54-4.31,2.4,4.32-4.14,4.12-4.9-1.63-6.6-10.1-3-20.17-6.13-30.34-8.89-2.46-.67-3.14-1.7-3.36-4-2.23-23-4.55-45.92-6.83-68.88Q48.21,653,45,619.74c-1.82-18.5-3.69-37-5.42-55.5-.43-4.6,1.61-6.36,6-5.48q63,12.67,125.93,25.38,56.17,11.27,112.38,22.38c5.19,1,10.37,2.12,15.58,3,2.52.44,3.46,1.48,3.61,4.23,1,18.08,2.2,36.14,3.27,54.21q3.54,59.94,7,119.88,1.14,19.39,2.4,38.77c.25,3.94-2.51,6.15-6.74,5.18a50.48,50.48,0,0,1-7.12-2.05c-7.16-2.79-13.22-.42-19.11,3.59-6.62,4.51-12.47,9.91-18.26,15.38-3.46,3.28-12.53,3.46-15.85.2-1.86-1.82-.85-3.22.8-4.46Zm57.41-74.68-.13,2.1c-.21,5-2,10.14,1.13,14.9l-.15,2.1c-.35,5-1.83,10.13,1.16,14.89l-.13,2.11c-.37,5-1.89,10.13,1.11,14.9l-.17,2.1-.65,2.42c-2-.17-4.37.09-2.64-3.3,1.18-2.3.48-4.9.33-7.36-1.9-31.33-3.88-62.65-5.76-94-1.9-31.67-3.66-63.35-5.59-95-.63-10.4-.76-10.51-11.1-12.61q-71.09-14.5-142.21-28.87c-32.18-6.51-64.39-12.91-96.55-19.56-3.18-.66-3.71,0-3.4,2.87,1.06,9.9,2,19.82,3,29.73q3.36,34.7,6.69,69.41,2.16,22.3,4.38,44.59Q58.55,730,60.35,748c.24,2.4.91,3.94,3.88,4.76,17,4.69,33.91,9.79,50.85,14.74l92.27,27c.85.25,2.17.13,1.58,1.71-.65.61-1.2.12-1.81-.06-8.05-2.36-16.09-4.76-24.19-7-1-.28-3-2-3.54.63-.41,2,1.12,2.52,2.74,2.73a3.24,3.24,0,0,1,.5.06c39,11.54,78,23.15,117.05,34.52,3.5,1,6.86,3.42,10.86,2.31l1.19,0c3.53-.53,1.48-3.14,1.42-4.58-.39-9.28-1.1-18.54-1.64-27.81-1.14-19.54-2.22-39.09-3.36-58.63q-2.31-39.74-4.67-79.48c-.94-15.39-2-30.77-3.05-46.16-1.28-1.31-2.91-1.65-4.65-2-25.65-5.26-51.32-10.43-77.09-15.11-30.89-5.61-61.65-11.89-92.44-18-24.13-4.82-48.19-10.05-72.35-14.72-4-.77-8.22-3.29-12.82-.44l253.68,51c.87.14,1.85.07,2.23,1.15a39.77,39.77,0,0,1,.87,5.77c.15,19.44,2.13,38.78,3,58.17.72,15.44,2,30.85,2.94,46.29.82,14.13,1.41,28.27,2.14,42.4C306,768.43,305.54,770,307.48,770.43ZM62.19,753.9c-.52.26-1.8-.79-2.17.72-.28,1.16.52,1.88,1.52,2.24q2.55.92,5.15,1.69L151,783.44c6.94,2,13.87,4.1,20.85,6,.73.2,2.35,1.37,2.71-.71a2.28,2.28,0,0,0-1.64-2.71c-1.08-.39-2.22-.59-3.33-.91L91.39,762.35C81.76,759.54,72.12,756.77,62.19,753.9Z"/><path class="cls-1" d="M397.77,190.62c2,.65,3.26,1.51.44,2.81a2.4,2.4,0,0,0-1.35,2.88c.24,1.8,1.79,1.07,2.79,1.09a78.47,78.47,0,0,0,8-.13c8-.63,9,0,10.59,8,.44,2.26.21,4.65.52,6.94.54,4-1.43,5.17-5,5.6-4.68.56-6.8-.88-6.15-5.79.22-1.63-.14-3.34,0-5,.26-3.48-.93-5.14-4.67-4,1.69,12.65,5.09,25.15,5.33,38.07.05,2.72,1.14,3.44,3.61,3.34a18.47,18.47,0,0,1,4.41.6c1.63.34,3.07.81,2.47-1.9s1.76-3.24,3.35-3.4,2.5,1,3.15,3c1.12,3.52,4.87,4.19,8.15,4.9a173.68,173.68,0,0,1,49.56,18.72l-1,1c-14.48-7.39-29.4-13.55-45.37-16.8,6,3.62,13.31,4.37,19,8.91-25.3-10.53-51.77-15.21-78.88-16.9-2.56-4.56,3-.94,3-3,6.77-1,12.41,3.73,19.24,3.55,3.56-.1,3.91-.85,3.74-3.56,2.19.15.18,2.69,2,3.27-.5-6.45-1.37-12.79-3.72-18.58-.67-1.65.21-5.34-3.35-5.6l-.23-1.14c1-.49,1-.49-.74-1.92-.31-3-1.63-6-1.71-8.82-.13-4.44-2.05-5.29-5.8-5.12-10.26.46-20.53,1-30.79,1-4.45,0-7.84-.09-5.7,6,.57,1.63.08,3.62.16,5.45.48,10.59,1.13,21.18,1.39,31.78.07,3,1.71,3.11,3.73,3.31,1.28.13,2.57.59,2.68-1.66.22-4.48,2.76-6.1,7.07-5,1.22,2.55-1.55,4-1.74,6.12l-.28,5.91c-3.38,4.49-1.11,9.49-1.23,14.27,0,.13.87.29,1.34.44,3.51.48,6.61,1.27,4.4,6.15-.76-1.71-.29-4.26-3.44-3.86-2,.25-2.21,1.46-1.94,2.73,1.45,6.73-2.19,8.49-7.9,8.41-.62,0-.7.45-.56.9,2.31,1.62,5.23-1.92,7.35,1-.95,1.19-.43,4-3.38,3-.81-.26-1.41.21-1.65,1.26-.59,2.56-2.7,1.31-3.38.61-1.65-1.68-3.38-4-5.63-2.75-2.61,1.42,1.39,4,0,6a2.54,2.54,0,0,1-2.06-2.41c-.46-2.9-3.21-3.3-5.06-3.46-2.74-.23-2.14,2.7-2.58,4.47-.24,1-.14,2-.33,3-1.45,7.46-1.46,7.45,5.87,8.82-3.88,1-8.25.06-11.8,2.47a8.31,8.31,0,0,1,1.85-4.83c3.38-4.79,1.35-8.82-1.49-13.19-2.06,3.61-2.78,7.34-4.21,10.76s-.12,5.76,1.94,8.13c1.2.48.38,1.78,1,2.49-4.31,1.41-1.84,4.82-1.87,7.22-.1,8.11.09,7.89,8.31,8.38,3.51.21,4.73-.84,4.41-4.16s3-7-.63-10.24c3.14-.64,3.29-4.71,6.52-5.59a15.59,15.59,0,0,0-1.79,8,1.05,1.05,0,0,0-.6,1.36c2.59,1.86,3.27,0,3.42-2,.45-5.83,5.19-9.57,8.74-12.12a40.54,40.54,0,0,1,20.36-7.75l1-.55,2-1c1.88.53,3.1-3,5.26-.85-.15,1-2.81,1.7-.13,3.25,1.33.77,1.7,2.55,3.52.54.77-.85,2.75-2.17,3.61,0,.94,2.36,3.14,2,4.73,2.92l.12,6.07-.35.38a21.93,21.93,0,0,0-3.43-.28c-4.46.31-8.7-2.34-13.22-1-2,1-3.34-.78-5-1.1,6.3-3.33,12.71,1.08,19.17-.13-.59-2.73-2.5-2.75-4.56-2.74-5.79,0-11.87,1-17.28-.42-4.31-1.16-6.69-.19-9.39,2.34-3.54,3-8.09,4.29-10.9,8.64a42.88,42.88,0,0,0-5.38,12.29,60.84,60.84,0,0,0-1.79,12.2c-2.35-1.1-.23-4.58-3-4.75a4.55,4.55,0,0,0-4.49,3.39c-.88,3-1.75,6.27-1.33,9.24.21,1.46,3.34,2.51,5.15,3.74l-.85,1.27c-6.67-3.46-8-3.05-10.86,3.36a9.6,9.6,0,0,1-3,3.77c-6.14,4.92-13.6,6.8-20.81,9.21-7.86,2.62-15.76,3.7-23.14-1.7-1.1-.8-2.89-.89-3.61.33-2.27,3.86-4.32,1.62-6.2-.12s-3.94-3.55-6.91-2.78c-1.47.38-2.06-.81-2.82-1.54-.53-.51-.46-1.8-1-2.1-6.93-3.85-9-11.55-13.62-17.16a7,7,0,0,1-1.78-4c-.33-4.1-3-7.39-4.22-11.11s.67-8.11-1.17-12c-3.13-6.67,2.92-13,.68-19.72-.48-1.43,1.13-1.75,1.72-2.62.9-1.32,2.27-2.94,2.1-4.26-.7-5.49,3.07-7.81,6.65-10.35.78-.55,2.45-.92,2.44-1.34-.13-5.69,5.13-5.74,8.2-8,.52-.39,1.53-.56,1.65-1,2.06-7.56,9.52-6.19,14.54-8.77,2.12-1.09,4.8-1,4.29-4.61-.22-1.6,1.51-2.15,2.76-2.38,1.91-.36,3.07.92,3.73,2.55.29.71,0,1.67.94,2.09,1.57-.23,1-1.41,1-2.31,0-9.48-.45-19,.11-28.44.4-6.71,2.12-13.35,1.85-20.16-.1-2.51.85-5.41-2.54-6.76-.4-.16-.86-1.28-.69-1.55a3.78,3.78,0,0,1,4.31-1.63c1,3.82,5.3,1.85,7.13,4.16-.72,1.18,1.29,2.43-.09,3.6-1.41.67-1-.78-1.39-1.25-1.22-1.56-2.79-2.68-4.7-2.1-1.68.51-.21,1.89-.21,2.88,0,2.38,1.17,3.1,3.45,2.9,9.69-.85,19.33,1.22,29.84.67-8.12-1.58-15.56-1.28-22.95-1.67-1.27-.07-3.41,1.49-3.89-1.29l23.72.06,2.15-.08,1.92-.27.13,1.58c-.47.7-.37,1.25.42,1.62s1.23.2,1.47-.61l6.89-1.51c.54.13.74-.08.61-.61l-.1-2,1-.83-1.55-.9-.07-.07-.06-1.84,2.16.41c.68.22.92,0,.81-.72.22-.54.18-1.37,1.17-1.05a3.12,3.12,0,0,1,0,3.31c-2.64,3.7-2.06,7.81-1.74,11.91l-.1.1c-4,1.25-1.6,3.86-1.29,6l0,3.77c-.09.1-.28.28-.27.3a6.61,6.61,0,0,0,.52.6l.21,10a12.47,12.47,0,0,0,.59,6.38l0,2.78c-.1.1-.29.26-.27.28a7.14,7.14,0,0,0,.51.58l.2,10c.66,12.15.57,24.35,2,37,1.55-1.76-.21-3.87,1.75-4.83,0,.82,0,.82,4.65,1.45,1.12.83-.47,2.71,2.16,3.64l-4.06-78c-1.41-2.21-.67-4.67-.85-7-.25-3.25-.31-6.61-4-8.21-4.25-1.4-8.58-.47-12.88-.4l-4.32.29-3.68,0c-4.75-.13-9.72,1.46-14.06-1.81,13.7-.18,27.43-1.07,41.09-.9,14.87.18,29.76.58,44.64.83.72,0,1.27.18,1.4,1-13.6.57-27.18,1.92-41.08.31,1.18,2.85,3.7.65,5,2.32l-2.08,2.57c-2.8-.92-6.62,1.78-7.35,4.27,10.09,0,20.53.07,31,0,3.8,0,8.38-2,11.22-.49,5.29,2.81,10.4.61,15.47,1.49,1,.17,2.8.51,2.8-1.06,0-2-2-1.18-3.06-1.2-5-.1-10,0-14.93,0,1.06-5.06,1.05-4.91-4.23-5.06-2.31-.07-4.29.94-6.46,1.14-1.33-2.56,1-2,2.1-2.43C389.87,191,394.08,192.5,397.77,190.62Zm-70,160.19c1.52-.23,3-.87,2.69-2.58-.33-1.92-2.13,1.2-2.83-.52,1.15-2.59,4-3.3,5.7-5.21s6-3.28,3.53-7.71L330,340.49c.07-2.92,1.57-4,2.62-5.38,1.27-1.65,4-2,4.15-4.6.06-1.24,3.18-2,.73-3.47-1.48-.88-2.67.36-3.71,1.61-2.16,2.58-3.89,5.59-7,7.3,1.1-2.6-1.4-3.78-2.21-5.63.69-1.13,2.14.63,2.77-.73l.21-9.92c3.79-1.45.55-2.36-.26-3.46l-1.79-1.49c-.09-.86.38-1.25,1.17-1.34l.92,0c-.65-6,1.74-13.14-6.33-16.22l.59-.66c1.52-.37,2.53,1.76,4.9.45-5.05-1.31-1.76-6.48-4.21-8.2a112.1,112.1,0,0,0-10.6-7.1c-4.72-2.55-10.43-3.32-15.77-4.64-1.32-.33-2.16-.66-2.28-2-.19-2.16,1.48-1.1,2.37-1.29,1.17-.25,2.19.38,3.29.75,3.84,1.28,7.74,2.39,12.57,3.85-3-3.83-4.3-9-9.16-8.05-4.26.82-8.26-2.3-12.29,0l-.23-1.48c.07-.64-.19-.93-.85-.79l-1.94.51c1-3.59,3.69-1.72,5.53-1.5,3.6.42,7.08,1.9,10.72,1.48.25-1.94-2.54-1.17-2-3,6.43-.14,8.21,5.26,10,9.49,3.43,8.09,8.87,10.91,17.36,9.78,4.67-.63,9.49-.11,14.24-.11-7.26-2.59-7.57-2.42-10.61-8.09-3.84-7.15-8.78-13.1-15.67-17.44-2.37-1.49-4.56-3.26-7.06-5.06,1.76-.67,3-.75,4.18.21,6.49,5.18,14.52,8.63,18.08,17,1.15,2.71,3.21,5,4.65,7.63,1.29,2.34,3.4,1.76,5.25,1.64,2.15-.14,1.24-2,1.19-3.13-.76-17.92-1.63-35.83-2.43-53.74-.1-2.2-.93-2.64-3.12-2.43-7.88.76-7.89.65-8.33-7.18a26,26,0,0,0-.05-3c-.75-4.29,0-7.22,5.35-6.26a6.13,6.13,0,0,0,.52-1.14c-11.06-1.08-22-.71-32.86-.79a3.55,3.55,0,0,0-3.34,4.29c2.13,6-.9,11.76-.59,17.76.33,6.5-2,13.22.08,19.92-.28-.41-.53-.39-.68.07,0,.12.1.29.16.44l.44-.62c1.58,3,5.13,3.86,7.07,6.47l-1.29.81c-3.24-.07-4.9-3-7.56-4.63-.09,6.89-.18,7.36-6.26,6.24-3.9-.72-4,2.58-6.37,3.69,2.26.42,4.06.68,5.81,1.1a23.54,23.54,0,0,1,11.69,6.9c-7.17-3.66-14.7-1.79-22.13-1.42-1.32-.84-1.75,1.26-2.93.88-.83-2.59-2.59-2.32-4.49-1.4-.78.38-2.15.6-1.52,1.92.49,1,1.59.77,2.57.52,1.18-.3,1.75-2.61,3.49-1.09-1.56,4.05-4.71.81-7,1.52-1-3.32-2.08-.75-2.78.08-2.08,2.48-3.8,5.47-7.87,3.46-.33-.16-1.55.51-1.54.75.26,4.83-5.12,6.81-5.88,10-1.41,5.94-6.51,10.94-4.85,17.58.93,3.73-2.14,6.78-1.23,10.67,1.75,7.43,2.67,15,5,22.37a42.17,42.17,0,0,0,9,15.37c3.36,3.65,6.51,10.43,13.78,10,1.56-.1,2.91,1.38,3.65,3,.42.94,1.59,1.78,2.27.9,3.7-4.82,6.89-1.22,10.16.59,1.59-4.8,2.92-5.26,7.48-2.91.22.11.93-.71,1.41-1.1.93,1.95,1.82,5.39,3.75,4.78,3.62-1.14-2.45-3-.37-4.9l-1.23-.38a.4.4,0,0,1-.22-.58c3.66,3.18,3.65,3.15,7.67.59.34-.22,1.28.5,1.63.28,1.36-.87,2.7,2.07,3.81.06.81-1.47-.86-2.29-1.39-3.42a5.83,5.83,0,0,1-.22-1.85c1.54.07,1.23,2.54,3,2.3,4.88,2.41,6.5-2.4,9.45-4.27l3.51-1.92c1.21,1.39-.33,1.66-.94,2.3a5.29,5.29,0,0,0-3.1,3.12Zm7.76-143c-1.54.06-4.09-2.26-4.34.86-.3,3.7.5,7.49.84,11.36,3.25-1,.22-4.31,2.63-5.31,0,.33,0,.66.06,1,.06,1.87-.63,3.95,2.72,3.85s2.12-2.14,2.16-3.71c.06-2.3,0-4.6,0-7.4C337,212.52,336.2,210.26,335.5,207.79Zm19.4,47c-.62,7.46,1.06,14.83.85,22.26-.07,2.3-.29,4,3.24,3.72s4.3-1.35,4.08-4.44c-.33-4.61-.5-9.23-.66-13.85C362.18,255.75,362.21,255.75,354.9,254.83Zm61.6-43.18c-.8-1.1,1.67-4-1.24-4.36-2.33-.31-1.89-4.8-4.5-3-3.2,2.2-.4,5.77-.88,8.73-.68,4.12,2.93,2.21,4.72,2.5C417.7,216,417.14,213.91,416.5,211.65ZM331.4,286.78c-2.41,0-4.62.56-7.62-.89,1.78,3.78,1,7.74,5.74,8.89C328.35,291.76,328.67,289.1,331.4,286.78Zm67.34-80.13,2.6,10.85C401.78,213.1,401,209.74,398.74,206.65ZM278.36,257.1c-2.74,1-6,.74-7.78,3.42C273.69,260.43,276,258.65,278.36,257.1Zm68.79,60.35c.2,2.36-2.16,4.46-.42,7.77C348.21,322.24,347.37,319.81,347.15,317.45Z"/><path class="cls-1" d="M567.75,624.34c2,.35,2.77-2.45,5.82-1.63-3,2.45-5.11,4.65-9,4.21-12.68-1.46-25.38-2.82-38.08-4.17-14-1.48-27.82-3.76-42-4-9.83-.16-19.39-3.53-29.29-4.42-16.34-1.48-32.61-3.59-48.91-5.47-22.22-2.56-44.45-5-66.65-7.76-9.8-1.2-19.84-.6-29.44-2.39-15.71-2.92-31.57-4.13-47.34-6.3-6.9-.95-13.82-1.79-20.76-2.36-2.79-.23-3.56-1.2-3.74-3.92-2.54-38.1-5.25-76.19-7.83-114.29-1.13-16.73-2-33.49-3.2-50.21-.21-2.89.57-4.28,3.27-4.82,4.28-.85,8.14-3.35,12.9-2.64-3.44,1.2-6.82,2.57-10.32,3.53-3.1.85-4.3,2-4.12,5.72,1,19.36,3,38.64,3.74,58,.83,20.75,3.06,41.44,4.6,62.16,1,13.58,1.95,27.16,2.7,40.75.16,2.94,1.06,3.94,4,4.25,18.78,1.94,37.57,3.93,56.3,6.31,3.85.49,4.17-.57,3.94-3.74-1-14.24-1.54-28.52-2.93-42.72-1.6-16.28-1.14-32.64-2.56-48.89-1.15-13.15-2.42-26.27-2.35-39.48a5.51,5.51,0,0,0-.76-2.79A2.3,2.3,0,0,1,297,454c.69-.31,2.27-1.34,2,.88-.07.63-.7,1.24-.67,1.83.6,11.28,1.27,22.56,1.92,33.84q2,34.59,4,69.19c.61,10.79,1.28,21.57,1.65,32.37.13,3.71,1.49,5.53,5.2,5.38,16-.67,31.7,2.54,47.51,4.17,19.13,2,38.2,4.47,57.31,6.67,15.66,1.8,31.32,3.51,47,5.24,1,.11,2,0,3,.14,8.75,1.13,8.77,1.13,8.49-7.88q-1.68-54.35-3.4-108.7c-.12-3.65-.59-7.32-.38-10.94.19-3.23-1.39-4-4-4.18-22.86-1.72-45.73-3.37-68.59-5.23-22-1.79-44-4-66-5.59-7.41-.52-14.82-2-22.32-1.11l-1.21-.84c.72-1.85,2.33-1.66,3.8-1.54q26,2.18,52.08,4.42,26.29,2.21,52.58,4.36c17.37,1.41,34.74,2.82,52.12,4.05,2.78.2,3.22,1.43,3.28,3.73q.74,26.65,1.6,53.3c.78,25.07,1.6,50.14,2.3,75.21.07,2.65.67,3.92,3.62,3.93,17.83,0,35.4,3,53.07,4.88,10.2,1.07,20.39,2.34,30.58,3.47,1,.11,2.28,1.07,3.07-.49Z"/><path class="cls-1" d="M864.7,275.22c5.52.75,11.15,1.08,16.55,2.35,9.25,2.18,18,5.62,24.81,12.73,4.68,4.91,10,9.19,14,14.76,1.53,2.13,3,2.73,5.68,1.57,2.39-1,5.2-.47,7.8.13l.08,1.11c-2.08.08-4.13-.21-6.19.86-1.3.68-1.92.81-.86,2.21.73,1,.11,3.38,2.59,2.26,1.16-.53,2.26-1.19,3.39-1.8,4.6,1.07,4.6,1.07,7.15-.92l.13.13.75,2.09c-.32,4.51-4.41,4.73-8.47,6.79,9.73,4.27,19.65,5.14,29,10-4.84.91-8.18-2-12-2.4-.94,0-1.82-1.7-2.7-.38-.47.7.62,1.2,1.27,1.56,1,.44,1.09,1.3,1.13,2.21l-.76,1.21c-7-8.87-16.63-9.43-26.71-8.71-13.25.95-26.59,0-39.78,1-15.72,1.25-31.49,0-47.12,1.93-2.52.31-5.64-.21-7.76,2.51-.86,1.1-2.76.17-4.23-.05a70.19,70.19,0,0,0-17.72-.38l-1.05-.41c-2.28-3.65-6.36-2.49-9.6-3.47-5.22-1.58-10.78.91-16.1-1.1-3.24-1.23-6.52-2-5-6.64.43-1.33-.69-2.16-1.5-1.55-3.79,2.89-9,3.46-12,7.66-1.75,2.46-1.84,3.68,1.49,4.57,1.68.45,4.69-.43,4.88,2.3a20.84,20.84,0,0,1-1.3,7.73c-.11.34-3.19-.3-4.89-.48-.22-.49-.48-.88-1.12-.61l-2-.18c-.73-.6-1.53-1.76-2.16-1.68-1.25.16-.65,1.57-.74,2.43-.34,3,1,5.53,2.12,8.15,1-2.43-1.83-4.92.79-7.08a57,57,0,0,1,2.92,13l-1,.3-1.95-.11c-.37-1.83.92-4-1-5.51a7.94,7.94,0,0,1-3-7.87c.26-1.49.11-3.34-1.29-4s-3-2.2-4.84-1.23c-.73.38-1.21,3.1-1.81,0-.19-1-1-2.7.89-2.61,2.82.13,4.44-2.29,7-2.74L754,332c-.84-4.47,2.39-7.52,3.72-11.17,2.35-.21,3.16-2.67,5.23-3.52,1.88-.77,5.17-.85,5.27-3s-3.41-1.75-4.93-3.09c-.5-.44-2-.06-1.46-1.35.43-1,1.22-1,2.39-.58,1.44.54,3.5,3.12,4.59-.44,1.76-5.75,3.44-11.53,5.31-17.82-6.31,1.38-10.38,5.47-15.3,7.88l-.37-.36c-.06-.83,1.54-1.25.58-2.3l.12-.31c4.22-1,4.8-1.47,5.49-4.26l-.09.07c1.62,2.22,2.91,0,4.14-.49,3.28-1.2,6.09-3.63,9.73-3.71-1.18,3.89-4.72,7.24-2.64,11.91.09-1.09-.48-2.36-1.42-1.71-.7.49-2,2.16-.5,3.58-.36.62-.56,1.22.29,1.6.06,0,.33-.21.32-.28-.07-.28-.13-.66-.33-.81-1.12-.83-1.38.11-1.6.89-.52,1.85-1,3.72-1.47,5.59-.09,1.54-2.7,3.49,0,4.47,1.95.69,2.18-1.24,1.73-2.86-2.58,1-1.68,2.84-.79,4.24,1.19,1.87,2.47.24,3.72-.31,6.36-2.83,12.73-5.12,19.13-.08-1.37,1-2.2-.75-3.38-.66-4.75-.43-9.43-.64-13.82,1.89a3.26,3.26,0,0,0-1.77,3.55c.07.59-.43,1.85.87,1.89,3.63.12,7.31.55,10.87.09,2.18-.28,1.86-1.86-.11-2.73,3.21-1.83,10.51,0,12.22,3.29.55,1,1,1.79,2.07,1.39s0-1.4.1-1.91c1.52-5.63-4.68-1.59-5.32-4.48.39-1.13,2.4.19,2.57-1.49.57-2.64,0-5.59,2.73-8.71,1.12,5.95,2.25,11.13,3,16.36.2,1.46-.39,3.12,1.36,3.75,1.41.51,2.58-.18,3.11-1.71a12.59,12.59,0,0,1,.64-1.34c.13.21.22.49.4.61a11.43,11.43,0,0,0,11.85.92,30.25,30.25,0,0,1,6.51-1.88c17.29-4,35,.22,52.34-2.56a106.75,106.75,0,0,1,15.33-1.28,82.05,82.05,0,0,1,18.72,1.37c4.61,1,9.43,2.43,14.26.85-2-4.47-5.84-7-8.51-10.45C914.8,302.58,907,296.35,900.3,289a4.75,4.75,0,0,0-3.59-1.4c-1-2.37-3.16-3.52-5.07-4.94-2.12-1.32-4.12-3.48-6.39-3.8a186.52,186.52,0,0,0-34.66-2.19l-.19-1.77,4.27,0c2.31.69,4.66.32,7,.24h3Zm38.47,46.17c-6.73-1.3-13.53.16-20.37,1C889.53,322.32,896.18,320.94,903.17,321.39Zm-116.57.8c1.67.61,2.79,1.59,4.22.46C789.66,321.48,788.57,321.83,786.6,322.19Z"/><path class="cls-1" d="M905.44,408.88c-1,.17-1.79,0-2.06-1.1l-.09-2.19c0-2,0-4,.1-6,.17-2.81-.89-6,2.24-8,.74,1.8,1.53,3.38,4,2.84,1.27-.28,2.65.05,4-.07s3.84.82,3.62-1.93c-.2-2.55-2.53-1.28-4-1.67-2.72-.74-4.94,2.52-7.72.89-.62-2.07-2.35-1.3-3.7-1.4-3.41-.25-6.83-.42-10.25-.62-.26-.36-.53-.72-1-.27-.74-.15-1.42-.13-1.83.65-1.32,0-2.69-1.14-3.91,0a2,2,0,0,0,0,1.82c1,1.66,2.54.48,3.85.6,1.78,1.46,4.82-.22,6.37,2.43-2.79,2.22-6.6-.68-9,2.08,1.92,2.05,4.32,1.53,6.55,1.72l1.07.64c.55.3,1.17.54,1,1.37-3.24.68-7.1-1.42-9.7,2.16l-.2.19c-2.46-.57-4.27-3.35-7.25-2.12a22.27,22.27,0,0,1-8.4-.64c-6.15-1.41-5.59-8.47-8-13.06-1.23-2.31-.07-4.59,1.53-6.1,2-1.92,5-1.29,7.54-1.47,2.14-.16,4.3,0,6.45,0-1.19,2.46-3.68,1.76-5.46,1.7s-3.31-.15-5.13,2.13c5.16-.35,9.45-.71,13.75-.9,1.92-.08,1.86,0,3.15-1.72a2.51,2.51,0,0,1,1.76-.31c1.1,3,3.49,2.37,5.76,2.1.51-.06,1,.24.71.73-1.64,2.34.08,2.07,1.52,2,3.39,3.86,8,2.83,12.24,2.94C924.7,389,944.35,387,964,386c4.27-.23,8.29-1.52,12.52-1.53,2.12,0,4.31-.39,4.21-3.56s-2.77-1.55-4.38-2.72c5.15-3.27,10.93-3.82,16.52-4.56,3.15-.41,3.85-1.33,2.12-3.79s-2.52-5.35-3.56-8.12c0-.1-.21-.14-.32-.2l-.55,1.16c-3.43-2.53-2.4-6.77-3.88-10.05a15.19,15.19,0,0,0-8.09-9.91c-6.1-5.57-6.1-5.57-12.23-1.95-.27-3.44,2.61-3.41,4.71-4.38-.15-1.36-1.83-1.53-2.39-2.66l0,0c6.73,1,11.81,5.16,15.71,10.06,6.76,8.5,9.37,19.22,13.24,29.17,2,5.11-.2,10.82-1.19,16-.7,3.72-.16,7,.21,10.48.1,1,.24,2-1,2.47a21.7,21.7,0,0,1-1-11.39c.78-4.16,1.38-8.36,1.82-12.56.09-.81-1-2.52-1.38-2.47-1.46.17-1.26,1-.88,2.44.58,2.24-1.74,3.49-3.1,5-1.71,1.84-6.68-.69-6,3,.43,2.34,4.29-.67,6.72-.25.78.13,1.6-.25,1.82.78.16.78-.52,1-1.16,1.25-2,.89-3.71,2.61-6.26,2-1.08-.24-2.07.41-1.72,1.68.4,1.47,1.31.92,2.28.37.73-.42,1.94-.22,2.43-.76s.42-2.35,1.57-.45c.48.79,1.78,2.08.92,2.54-3.12,1.65-7.26,4.76-9.57,3.81-3.68-1.51-2.79,2-4.2,2.4-1.77-3.45-1-7-1.26-10.45-.08-.94,1.26-3.06-1.41-2.66-1.62.24-1.75,1.11-1.49,2.8.62,4.08.65,8.24,1,12.37.22,2.47-.24,4.3-3.17,4.43-.31-.81,2.28-2.32-.69-2.53-2-.14-4.23.71-6.14-.68,1.25-.76,4.08.68,3.77-1.94s-2.77-1-4-.89a415.62,415.62,0,0,1-51.68,2,56.39,56.39,0,0,0-6,.31,1.83,1.83,0,0,0-1.74,2c-.06,1.46,1,1.57,2,1.5,3.3-.23,6.63-.94,9.89-.68s7-1.78,9.66,1.72c-5.82,0-11.64,0-17.45.17-1.28,0-3.21-.85-3.37,1.65Zm-32.33-16.22c2.76,0,4.58.11,6.39,0,1.1-.09,2.92.83,3-1.42a2.21,2.21,0,0,0-2.64-2.29c-4.55.6-8.62-1.49-12.94-2-1.28-.15-3.45-1.1-3.58,1a3.48,3.48,0,0,0,2.94,3.95Zm-7.76,2.39c4.49,4.21,9.75,2.34,14.3,3.41,1.11.26,2.57.37,2.81-1.15.28-1.74-1.13-2.22-2.54-2.24C875.32,395,870.71,395.06,865.36,395.06Zm44.78,5.36c1.49-.17,3.58-.47,5.69-.65,1.14-.1,1.81-.41,1.81-1.72,0-1.53-.77-2-2.13-2-2.93.18-5.85.38-8.78.58-.88.06-1.63.32-1.65,1.37s.31,2,1.49,2.18C907.53,400.36,908.52,400.33,910.14,400.41Zm13.56-6.08c2.33-.21,4.46-.41,6.58-.58,1.13-.09,2.42.16,2.32-1.67-.09-1.54-1.18-2-2.36-2a47.29,47.29,0,0,0-6.36.55c-1.41.22-3.81-1.11-4,1.4C919.68,394.88,922.23,394.14,923.7,394.34Zm15.86,5.09c1.73-1.85,6.4,1.22,6.38-2.48,0-2.35-4.42-.69-6.82-.89-1.55-.13-4.27-.7-4.17,1.84C935.06,400.85,937.66,398.88,939.56,399.42Zm0-5.89v-.2a21.63,21.63,0,0,0,3.95-.06c1.11-.21,2.88.26,2.87-1.86,0-2.29-1.75-1.51-2.86-1.54-2.31-.07-4.62.06-6.93.13a1.49,1.49,0,0,0-1.61,1.5c-.08,1.13.39,1.94,1.61,2C937.55,393.58,938.55,393.53,939.54,393.53ZM925.9,399.7a5.07,5.07,0,0,0,1.37,0c1.74-.68,5.17,1.68,5.14-1.72,0-4-3.34-.44-5-1.28a1.88,1.88,0,0,0-1.46,0c-2,.93-5.95-2-5.88,1.54C920.16,401.22,924.15,399,925.9,399.7Zm26.84-6.85c1.82-1.08,5.88,1.25,5.67-2.54-.18-3.1-3.7-1-5.69-1.38a1.22,1.22,0,0,0-.49.06c-1.42.34-3.76-.64-3.53,2.15S951.29,392.17,952.74,392.84Zm18.68-3.54a13.76,13.76,0,0,0-7.26-1.2c-1.66.09-3.13.8-2.89,2.63.21,1.62,1.89,1,2.9.91C966.64,391.51,969.32,391.8,971.42,389.3Zm-19.54,9.34c2.19-.67,5.65.44,6.58-2.39.75-2.28-2.05-1.66-3.17-1.39-2.24.55-5.73-1.62-6.51,2.23C948.37,399.12,950.55,398.38,951.88,398.64Zm11.94-1.35c1.39-1.37,5,1.1,5.71-2.27.44-2.07-1.89-1.36-3-1.25-2,.22-4.67-.86-5.45,2.08C960.67,397.64,962.13,397.55,963.82,397.29Zm9.07,4.75a15.07,15.07,0,0,0,0-8.6ZM979.84,388c.77-.19,1.67-.28,1.67-1.33,0-.71.16-1.73-1.17-1.42-.82.19-1.56.44-1.56,1.48C978.78,387.42,979,387.95,979.84,388Z"/><path class="cls-1" d="M718.48,418.72c3.94-2,4.39-1.7,4.38,2.79q0,51.34,0,102.74l9.59-5.73,1.08.74c-3.22,3.62-8.18,4.86-12.12,8.77,6.36,1.39,12-.35,17.57-.89,13.32-1.3,26.58-3.1,39.9-4.39,3.17-.31,6.55-.84,9.74.78a4.16,4.16,0,0,0,3.39-.12c6.6-3.8,14.06-3.84,21.23-4.66,17.45-2,35-3.56,52.44-5.22,3.27-.31,6.6-.6,9.82.65a2.78,2.78,0,0,0,1.94.24c10.75-5.78,22.78-4,34.18-5.84s23-3.49,34.75-2.91c.93,0,2.07-.31,2.44,1.05l-8.26.27-1.87.21c-1.05-.05-2.16-.47-3,.5l-2,.16c-17.71,1.55-35.4,3.21-53.91,6.17,3.32,2.64,7.06,2.24,8.07,5.74a2.76,2.76,0,0,0-.19.94l-1.07.14a6.5,6.5,0,0,0-5.8-3.05c-5.56.24-11.21.09-16.67,1-7.93,1.33-16,1.54-23.88,2.78-11.18,1.75-22.58,1.73-33.64,4.39.69-2.76,3-2.85,5.18-3.08,17.55-1.8,35.12-3.48,52.64-5.55,3.22-.38,6.84.28,10.67-2.19a33.23,33.23,0,0,0-10-.17c-11.67,1.3-23.35,2.49-35,3.84-10.5,1.21-21,2.56-31.48,3.84-1.3.16-3.12-.08-3.42,1.4-.44,2.18,2.14,1.39,3.11,2.37a20.92,20.92,0,0,0,3.46,2.34c-2,6.91-.47,13.92-.57,20.88l.25,4q0,1.12,0,2.24l-1.73-.19c-.09-7.15-.1-14.31-.3-21.46-.15-5.62-2.52-7.79-8.14-7.21-12.77,1.33-25.52,2.88-38.28,4.29-6.54.72-13.09,1.33-19.63,2l-.15-1.5,54.61-6.27c-1.32-1.86-2.87-1.55-4.58-1.36-20.6,2.24-41.23,4.26-61.82,6.67-6.71.78-10.18,2-9.64,10.71.47,7.45-1.47,15.24,2.92,22.17a20.67,20.67,0,0,1-8.8-4.21l1-1,3.78.9c-.19-4.07.48-8-1-11.75.9-7.26.85-7.33-5.93-6.83a40.68,40.68,0,0,0-4.46.5c-2,.38-2.86.06-2.85-2.4q.21-48,.18-95.94c0-4.52,3.54-3.58,6.33-4.36-5.85,2-4.53,6.7-4.55,10.8q-.21,42.46-.35,84.93c0,1.59-.85,3.72.68,4.69s2.86-1.16,4.36-1.51c5.4-1.26,7.83-7.38,13.62-8.05,1.83-.21.93-2.19.95-3.32.1-9.49.09-19,.11-28.48,2,1.35.86,3.35.88,5,.13,8.72.06,17.45.06,26.84,2.73-1.74,1.92-3.77,1.94-5.38.31-33.91.48-67.82.92-101.73C721.48,419.67,719.68,419.75,718.48,418.72Z"/><path class="cls-1" d="M95.74,449.46c25,0,50,.05,75-.05,6.13,0,7.47-2,7-8.15q-1.76-22.86-3.26-45.75c-.59-8.88-.82-9.22-9.63-9.15-13.31.1-26.63.3-39.94.4-9.33.07-18.66,0-28,.09-6.41.07-8,2.66-6.95,9.19a87.15,87.15,0,0,1,1,19.17c-.81-8.65-1.59-17.3-2.44-25.95-.2-2,1.2-2.53,2.56-3.16,8.25-3.82,16.5-7.68,24.79-11.41a9.88,9.88,0,0,1,3.88-.61c23.48-.2,47-.26,70.43-.62,3.86-.06,4.86,1.44,5.09,4.8,1.12,16.4,2.37,32.78,3.55,49.18q2.31,32.3,4.59,64.6,1.27,17.88,2.6,35.76c.09,1.18.33,2.37-.6,3.29-6.47,6.37-13,12.71-19.84,19.43-.28-18.93-2.49-36.92-3.62-55-.82-13.1-1.94-26.18-3-39.26-.23-2.94-.57-4.19-4.81-4.75-8.55-1.12-17-.21-25.42-.68q-23.1,0-46.2-.06c-2,0-3.72,0-3.65,2.68l-2.09-.3C95.24,452.26,94.46,451.15,95.74,449.46Zm92,94.89,1.64,1c2.4-2.76,4.41-6,7.27-8.17,6.14-4.6,7.87-9.89,7.1-17.73-2.44-25-3.79-50-5.61-75-1.5-20.7-3.13-41.39-4.55-62.1-.45-6.58-.22-6.57-7.24-6.56-21,0-42,.35-63-.07-9.1-.18-15.28,5.78-23,8.38,23.95.49,47.73.55,71.52.4,2.91,0,3.9.36,4.06,3.57.48,9.78,1.45,19.54,2.2,29.31q2.31,30,4.59,60.1Q185.29,510.89,187.76,544.35Z"/><path class="cls-1" d="M500.59,301.81a4.36,4.36,0,0,1,2.91,4.61,8.63,8.63,0,0,0,1.15,5.2c3.14,6.42,1.7,13.05,2,20,7.68-1.69,15.88-3.43,24-5.3q37.47-8.56,74.91-17.25c1-.23,2-.92,2.44.36s-.76,1.24-1.57,1.78c-3.12,2.08-6.83,1.85-10.17,2.72-13.39,3.47-27,6.22-40.47,9.24-13.3,3-26.67,5.81-40,8.74-20.14,4.43-40.25,8.94-60.39,13.34-4.77,1-9.43,2.66-14.37,2.85l-1.19-1.24c-2.31-4.13-6.2-1.05-9.27-1.94-3.25-.93-6.52-.22-8.07,3.56l-1.22-1.12c.5-1.61,2.24-3,.79-5.18L416,349l-.42-.34-.95-2.94c4-1.14,4.19-5.39,6.47-8s2.85-6,.1-9.12c-1.76,1.32-1.09,3.76-2.46,5.15-1,1-.31,3.84-3.1,3-.23-1.91.88-3.42,1.41-5.12,1.49-4.81,6.71-9.56.86-14.75-3.93,5.28-2,11.74-3.58,18.42-.74-1.88-1.54-2.39-1-4.33.8-3.1-.78-7-4.21-6.76-3.85.32-2.76-2-3.39-3.61a2.75,2.75,0,0,1,2.49.77c1.26,1.94,3.78,1,5.38,2.41-1.55-5.54,6.16-11.3-.68-16.53,5,.34,6.88,3.92,8.28,8,0,.45-.29,1.14-.1,1.29.55.43.68-.22.88-.58,1.64,2.65.57,5.64,1.07,8.42.63,3.5.24,8.12,4.89,9,5.15.92,10.49.78,15.74,1.22,2.09.18,3.69-3,6-.77,2.5,2.39,5.17,2.8,8.05.69a9.46,9.46,0,0,0,4.4.55c9.95-.47,19.68-2.6,29.53-3.77.54.13.74-.08.61-.62.2-1.34.59-2.7-.28-4a21.6,21.6,0,0,0,.73-7.79c-4.37.56-2.51,6.19-6.09,7.18-2-1.32-2.19-1.52-1-2.37,1.43-1,2-2.27,2.49-4.36l-19.33,2.76c-.53,0-.73.19-.59.71q0,1.93,0,3.86l-.11,1.13c-.53,1.64.1,2,1.59,1.46.76.12,1.51.21,2.05-.52l5-.49c.75.11,1.5.21,2-.52l5-.48c.74.1,1.5.23,2-.54l.94-.33c1.18.65,2.66.89,3.2,2.38l-3,.44c-.75-.11-1.51-.21-2,.52-4.92.61-9.93.85-14.74,1.95-3.88.89-4.69-.58-4.51-3.83,0-1,.8-2.41-.87-2.91-1.25-.38-1.64.56-2.13,1.49-.64,1.2-.79,3.05-2.89,2.75h-1.72c-2.4-.83-4.82-.37-7.24-.15.43-1.41.43-1.41,3-1.36,7.28.16,7.91-.36,7.95-6.55l4.27-.84,1.81,0c1,0,2.15.47,3-.51,7.5-1,15-2,22.51-3,1.69-.24,4.37.92,4.2-2.54-.17-3.72-3-1.86-4.72-2.26,2.79-3.58-1.58-2.53-2.1-4.13-1.58,1.78,1.07,3.63-.86,5h-5.39c4.14-2,4.8-8.49,1.74-12.54l1.06-2.77c.58-1.53.59-2.84-1-3.83-.89-.55-1.76-1.12-2.75-.65-1.6.76-1.36,2.36-1.71,3.81-1,4.24,3.63,1.36,4.18,3.49-2.2,2.58-3.8,2.69-5.59.72-2.3-2.54.87-6-1.59-8.39,2-.35,3.35-2.72,5.77-2,.28.09.66-.19,1-.14,2.38.35,2.26-1.11,1.92-2.67-.28-1.32.09-2.83-2.46-2.55q-15.75,1.75-31.55,2.93c-2.82.21-2.56,1.83-2.56,3.63l-1,0c1.48-3.23-3.47-2.59-3.1-5.16l3.06-.81c1.12,1.57,2.75.84,4.09.72,9.54-.87,19.07-1.86,28.6-2.85,1.86-.19,4.66.71,5-1.85.34-2.36,1.37-5.43-1.21-7.32-2.31-1.7-.76-2.93.08-4.35l.87-.76c3.35,4.25,2.81,9.64,2.15,14.05-.61,4.07.91,7.73,2.91,8.47,5.11,1.9,5.93,6.51,8.5,10-.9,1.57-3.42-.27-4,1.91,0-1.46-.14-2.93-.05-4.38.1-1.66-.29-2.93-2.09-3.25-.74-.13-2-.28-2.23.1a2.8,2.8,0,0,0,.54,3.9l-1.49.87c-2.29,1-1.9,2.86-1.15,4.44.83,1.75,2.66,1.46,4.26,1.17,2.71-.5-.2-1.68.27-2.52.57-1,1.28-.64,2-.4,0,1.77-.65,4.47.24,5.17,4.92,3.88,3.57,8.26,1.76,12.85-1,2-2.41-1.86-3.22.11s-2.44,3.72-1.37,6.05c1.7,3.71,1,4.66-3.28,5.15-3.89.45-7.75,1.2-11.64,1.62-1.65.18-3.2.44-3,2.37.21,2.67,2.17,1.29,3.35,1,3.12-.82,6.13-2.44,9.27-2.68,6.15-.47,9-2.43,10.86-8.67.88-1.75,1.85-3.47,2.61-5.27,1.5-3.56,3.26-6.73,0-10.83C500.76,308.75,499.12,305.07,500.59,301.81Zm-75.87,40.85c.07.59.3,1,1,.7l15.55.31c1.11,1.79,2.46,2.86,4.76,2.06,3.11-1.09,6.6-.94,9.88-2.72-2.2-.5-4,0-5.76.2-2.91.37-5.81,1.59-8.8.37.36-1,1.24-.88,2-1,9.17-1.33,18.34-2.64,27.49-4,1.31-.2,3.67.21,3.41-1.76s-2.43-.67-3.74-.8c-.79-.08-1.61.42-2.43.47-6.57.37-13.23,2.13-19.68.76-7-1.49-14.13-1.22-21.15-2.24-2.76-.4-3.15,1.3-2.71,3.51a3.07,3.07,0,0,0,.12,4.14Zm77.39-11.18c1.29-1.69,2.31-2.89,3.18-4.19a2.14,2.14,0,0,0-1-3.24c-.81-.33-1.71,1.19-1.45,2C503.42,327.91,501.26,329,502.11,331.48Zm-.95-.33c-.52.47-1,.71-1.09,1.06s.36.62.57.95c.31-.26.74-.47.88-.81S501.34,331.69,501.16,331.15Z"/><path class="cls-1" d="M830.76,387.73a31.66,31.66,0,0,1-3,14.26c-3.3,7-6.51,7.78-12.46,3-1.3,1.38,1.73,2.43.06,4.07-2.8-2.26-4-5.47-4.83-8.69-.64-2.35-1.8-3.22-4.14-4-7.68-2.7-15.48-4.81-23.35-6.82-2.47-.63-4.76-2.89-7.43-3.85-.27-1-1-2-.34-3.07a2.11,2.11,0,0,0,2.21.62c10.7,2.42,19.69,9.62,31,10.16-1.51-7-.75-14.9-1-22.76a7.62,7.62,0,0,0,.16-.94l.52-1.06,1.44-7.94.58-1.14.51-1.8c1.2-.16.44-2.14,1.91-2,1.76,1-.82,2.35.39,3.38,1.48-.18,1.81-1.78,2.87-2.51,2.42-1.67,5.1-2.22,7.2.11,4.3,4.78,7,10.33,6.54,17-3-.08-3.09,3-4.5,4.55a2.92,2.92,0,0,0,1.32,4.15,2.49,2.49,0,0,0,.35-.67c0-.14-.05-.32-.09-.48l1.29-.84c2,.23,1.34-1.23,1.57-2.25.34-1.49-1.48-3,.08-4.43C831.92,378.24,829.79,383.1,830.76,387.73Zm-5.12,6c1.38-.3.73,2.36,2.73,1.49-2.31-3.43,2.73-6.5.73-10-2.65,0-.21,2.07-1.26,2.33-2.48.63-.53-3-2.21-3-2.47,3.21.59,6.12,0,9.18-2.53,2.11-1.34-2-2.76-1.81-.08.45-.28.87-.16,1.07,1,1.69-1.72,5.22,1.7,5.3C828,398.35,823.37,394.8,825.64,393.72Zm-6.26-4.22c4.87-9.65,4.87-9.65-2.19-12.21,4.08,3.45,2.75,7.23,1.5,11C818.6,388.59,819.1,389.05,819.38,389.5Zm-7.87-10.11c.81,3.87-.91,8.09,1.67,11.78-.87-2.75,1.95-3.45,2.67-5.24.84-2.07,1.12-4-1.33-5-1.93,1.29.39,3.41-1.45,4.54C811.94,383.51,813.46,381.1,811.52,379.39Zm12.54-5.51c2-9.09,2-9.09-.43-11.34C824.23,366.46,821.25,370.13,824.06,373.88Zm-6.39,27.69c8.15-1,1.23-5.81,2.49-8.58C818.72,395.72,817.14,398.4,817.66,401.57Zm-2.21-39.33c-2.46,3.53-1.6,6.67,3.06,10.41C817.42,368.79,813.16,366.48,815.45,362.24Z"/><path class="cls-1" d="M719.17,339.63a14,14,0,0,0-.14-6.12c2.81.65,1,3,1.67,4.47.39.9-.58,2.47,1.22,2.64s1.42-1.24,1.68-2.33c.54-2.22,1.31-4.38,2-6.56.32-1,1.65-2,1.88-1,.73,3,2.09.75,3.17.73,2.25,0,3.88.48,5.11,2.86,2.7,5.26,4.33,10.66,4,16.59l-1.2.23.48.66.66-1c2.25,4,0,8.64,1.57,12.78,1.25-8,.51-15.84-1.14-23.75-.67-3.2-3.63-5.75-2.49-9.36.74.17.91.76,1.19,1.38,4.22,9.51,4.76,19.75,5.73,29.86.26,2.76.92,4.56,3.31,5.74l-.75,1.24c-24.92-9.81-49.79-19.75-74.79-29.38-19.48-7.51-38.66-15.78-58.45-22.5-1-.34-1-.21-.52-1.37,1.29-2.88,1.25-5.41-3.22-4.29-.91.23-1.77,0-1.95-.95-.25-1.44.84-1.53,1.89-1.54,2.94,0,6.43-.81,5.68,4.19-.26,1.72.48,2.66,2.14,3.31Q668.4,335.8,719,355.6c.84-1.88-.25-3.33-.52-4.87l-.28-5.07.45-5.05Zm15.17,18.48c.35-2.52.53-4.61-1.34-6.08-.56-.45-1.84-1.16-2.59-.06s0,2,1.11,1.91C735,353.49,732.76,356.76,734.34,358.11Zm.5-11.45c1-2.29,3-4.75,2.59-4.58-3.89,1.57-.78-1.91-1.72-2.13a1.49,1.49,0,0,0-.86-2.11Zm2.92,13.16c-.44.88-2.2-2.34-1.92.63.09,1,.3,1.86,1.7,1.89,1.74,0,1.73-1,1.73-2.2C739.26,357.53,738.11,360.72,737.76,359.82Z"/><path class="cls-1" d="M679.86,554.32c-1.17,2,.68,1.26,1.23,1.21,3.61-.3,7.22-.66,10.81-1.13,4.13-.53,3-4.35,2-5.59-1.85-2.31-1.34-4.53-1.35-6.85,0-9.42,0-18.84.05-28.27l1,0v31.56c1.1-1.76.16-3.73,2.27-3.72,1.28.82.17,1.7.05,2.55-1.11,8.28-.54,9,10.59,13.7q.11.38.24.76l-1,1c-4.1-1.91-7.9-4.57-12.91-3.73-6.56,1.09-13.2,1.73-19.78,2.7-2.5.37-3.37,2-3.33,4.59.15,10.95,0,21.9.1,32.85.06,6.26-.68,12.57.82,18.77l-1.83-.67-.67-.79c0-15.83,0-31.65.17-47.48,0-3.1-.81-3.71-3.24-1.75-3.66,2.93-8.82,4-10.9,9a5.23,5.23,0,0,1-3.56,2.54c-9.86,1.45-16,9.49-24.41,13.49-2.24,1.07-1.37,4.63-4.37,5.5-4.29,1.24-8.7,2.26-12.63,4.71a9.85,9.85,0,0,1,7-5.36c2.57-.45,2.27-1.62,2.27-3.24q0-12.49,0-25l1,0v27.1c4-.29,2.91-3.13,2.9-5.13q-.2-45-.54-89.91c0-5.65-.33-11.29-.39-16.94,0-2-.63-4.16,2.18-5.42,7.72-3.46,15.29-7.23,22.92-10.89,1.54-.74,3.26-2,3,1.31l-1.16.25c-7.18,3.28-14.29,6.71-21.56,9.77-2.86,1.21-3.34,3-3.31,5.75.27,30.75.41,61.5.65,92.25,0,4.51.42,9,.67,13.91a51.47,51.47,0,0,1,6-3.88c6.48-3,11.14-9.2,18.59-10.41l1.25-.21c2-.57,2.77-1.82,2.76-4-.11-38-.12-75.94-.27-113.91,0-1.35,1.22-4.27-2.47-3.82-1,.12-.65-1.44-.47-2.07.37-1.27,1.62-.67,2.51-.78,1.12-.14,2,.17,2,1.54,0,2.5.08,5,.08,7.49,0,23.81,0,47.63,0,71.44,0,11.65.22,23.3.35,34.95,0,1.09.17,2.18.3,3.71,8.22-4.44,14.65-10.81,22.82-14.32Z"/><path class="cls-1" d="M441,348.13c-13.15,4.15-26.82,6.16-40.13,9.66-5.49,1.44-11,2.82-16.59,3.91-2.56.5-1.7,2.28-1.53,3.4.55,3.73-1.23,5-4.54,6.09-24.33,7.72-48.6,15.61-72.87,23.49-18.24,5.92-36.44,11.91-54.69,17.8a8.51,8.51,0,0,1-6.69.07l127.14-41.11c-8.38-2.69-13.15-7.19-16.22-13.5-1.35-2.77-4.74-4.26-4.74-7.86,0-.8-.78-.88-1.48-.52-4.26,2.21-4.58-1.36-5.64-3.85l.85-1.27a8.94,8.94,0,0,1,1.19,1.47c.52,1,.16,3.12,2.29,2.15,1.32-.6,2.61-1.6,1.34-3.48-.37-.54-1-1.49.55-2,2.91,2.84,1.76,7.38,3.81,10.28,4.88,6.89,9.24,14.39,18.44,17,4.39,1.23,9.59-1.07,9.46-5.55-.08-2.94.49-4.59,4-4.82,3.25-.21,6.46-1.27,9.66-2.08s5.77-2.42,7-5.68c1.3-1.62,1.75-.27,2.21.68.78,1.61,1.78,2.72,3.77,2l.41,0-.09-.7c3.65-.21,4-.44,3.9-2.73-.27-3.26,2.93-.81,3.74-2.27l.42.34c.32,1.32-1.83,2-.75,3.8,2.79-1,4-3.73,6.09-5.35l1.22,1.12c-1.93,3.17.6,2.42,2,2.1,5.13-1.15,10.22-2.47,15.33-3.72Z"/><path class="cls-1" d="M979.88,408.69c-2.51,2.37-6,1.38-8.77,1.79-9.54,1.38-19.26,1.51-28.9,2.31a490.18,490.18,0,0,1-50.57,1.46c-13.9-.28-27.79-.71-41.69-1.92-5.14-.45-9.38-2.57-14.16-3.3-1.56-.24-2.59-.51-2.18-2.36l2.17.59c11.88,2.9,24,5.41,36.14,4.5,8.18-.61,16.32,2.76,24.48-.48,2.12-.84,5.09.86,7.73.25,1.51-.35,2.4-1,1.31-2.64l.38-.37,19.79,0,.95,1.09h-19l0,1.67c10.33.63,20.67-.65,31-.76l6.18-.19,1.85-.14c1.37,0,2.82.61,4-.51l2.93-.16c2.73.15,5.47.35,8.07-.84l1.94-.16c2.08.12,4.17.37,6.06-.84l2,0Z"/><path class="cls-1" d="M895.69,363.74c20,1.49,39.94-.68,59.89-1.51,1.25.44,2.94-.55,4,1.33-18.76,1.17-37.32,2.06-55.89,2.65A365.72,365.72,0,0,0,963.86,364c-.46-1.79-2.37-.64-2.22-2.26,1.08,0,2.34-.38,2.41-1.31.22-2.86,1.85-2.76,3.93-2.4.92.16,2.09.19,2.63-.89s-.19-1.89-1-2.54c-2.21-1.83-2.19-4.63-3.09-7,1.91-.66,0-2.89,1.58-3.79,1.7,3.75,1.61,8.38,5.47,11a7.61,7.61,0,0,0,5.07,2.8c1.43,6,6.65,1.82,9.84,3.31-.83,2-2.43,2.44-3.93,3a14.67,14.67,0,0,1-9.93-3.92c-2-1.75-4.29-1.94-6.84-1.72-2.18.18-2.3.85-1.75,2.81,1.41,5,.66,6-4.81,6.73a249.43,249.43,0,0,1-34.12,2.14c-7.23-.06-14.47.55-21.73-.92-4-.81-6.31-3.8-9.64-5.33Z"/><path class="cls-1" d="M751,383.81l-.13,3.83v2.12q-.57,56.19-1.14,112.38c-.08,7.87-2.17,10.39-10.44,12.49.09-.28.1-.71.26-.78,7.25-3,8.26-8.56,8.24-15.88-.1-32.79.44-65.58.84-98.37q.16-13,.84-25.9c.12-2.31-1-3.63-2.32-5l.75-1.24,2.8.26.41,2.17,0,1.78c-.15.53.07.76.6.72l5.93,1.37,1,2.9c-3,.06-5.08-2-7.7-2.65-.2,1.75-1,3.37,1.37,3.78l15.42,2.75c.83.24,2.4.12,1.81,1.44-.72,1.61-2.49.6-3.81.71l-1.12-.68-1.82.19c-3.13-2.43-6.67-1.78-10.23-1.54C749.79,380.8,751.34,382.69,751,383.81Z"/><path class="cls-1" d="M731.43,289.5c.55-2.3,2.37-1.72,4-1.89,11.51-1.19,23.05-1.78,34.58-2.65,7.34-.55,13.88-4.8,21.29-5.9,11.08-1.64,22.1-3.63,33.37-3.44v1.07a96.2,96.2,0,0,0-23.75,2.93c6.07,3.31,10.09,10.37,18.35,6.3-1.56,2.57-3.68,1.45-5.35,1.77-5.83,1.11-9.41,2.82-7.44,9.77,1.23,4.33,1.12,9,1.61,13.56-2.62-4.32-3.16-9-3.5-13.7-.14-1.94-1.64-4.47-.07-5.76,3.27-2.67.65-3.93-.76-5.58a12.05,12.05,0,0,0-7.71-4.13c-10.35-1.5-19.43,2.08-28.14,7.11l-1-1a3.82,3.82,0,0,0,.13-.81.47.47,0,0,0-.35-.3c-7.49.47-15,.85-22.48,1.47-4.11.34-8.19,1.1-12.28,1.67Z"/><path class="cls-1" d="M721.29,324.6c2.61-2.68,3.09-6.58,5.27-9.41,2.66-3.47,6.43-5.63,11.8-6.88-7.38-4.84-11.78-10.4-6.92-18.81l.47.47q0,4.94,0,9.88a12.43,12.43,0,0,0,2.68-4.78c.34-.93-.4-2.43,1.55-2.49,4-.13,7.78-1.69,12-1.68,6.32,0,12.85,0,18.8-3l1,1-3.32,2.73.09-.07a8.22,8.22,0,0,0-5,2.59c-2.46-3.44-5.75-1.06-8.62-1.08-3.22,0-1.44,3.09-2.32,4.6-.41-.15-1.06-.2-1.2-.48-.58-1.16-1.35-1.75-2.53-1a2.32,2.32,0,0,0-1.21,2c0,1.51,1.42,1.09,2,1.79,1,1.23,3.26,0,4.12,1.79-4.66,5.06-10.65,7.86-16.94,10.25-4.33,1.64-7.85,8.12-7.18,12.53.3,2,1.24.71,2,.53a4.92,4.92,0,0,1-2.75,3.6A4,4,0,0,0,721.29,324.6Zm15.3-25c2.1-1.54,5.09-.15,5.6-3.21a1.27,1.27,0,0,0-1.35-1.6C738.05,294.69,736.82,296.24,736.59,299.57Zm3.49,6c1.32,0,2.57.11,2.56-1.62,0-2.06-1.33-2.42-3-2.2-1.17.15-3-.35-2.71,1.77C737.19,305.35,738.6,305.8,740.08,305.59Z"/><path class="cls-1" d="M852.52,342.71c1.6-1.65,0-2.45-.9-3.46l1.27-.81c4.83,1.48,9.25,3.9,13.83,6,6.5,3,11,7.54,13,14.32,1.22,4.17,5,4.16,6.95,2.86,2.87-1.89-.76-3.43-1.27-4.56a18.93,18.93,0,0,1,10.34,6.69l.08,0c-9-4-14.82-3.11-20.07,3.2-3.17,1.74-6.4.92-9.75-.17l2.73-.39c3.8-.44,7.34-2.62,6.39-6.21-.81-3-1.49-6.92-4.48-9.22-.21-.16-.64,0-1,0l-.18-1.59c-.85.41-.75,1.21-.8,1.94-2.16-.8-1.26-4.22-3.93-4.57-1.34-.55-1-3.07-3.16-2.68l-2-.23C857.49,341.59,854.78,343.71,852.52,342.71Z"/><path class="cls-1" d="M804.65,373.71a18.57,18.57,0,0,1-.1,13.18l-.06-.11c.22-2.09-1.22-2.67-2.82-3.11-1.22-.67-2.16-2.37-3.92-1.08h0c.25-1-.62-.72-1-1a10,10,0,0,0-5.13-1.79l-2.95-1.15c-1.58-.92-3.14-1.9-5.08-1.8q-.42-.15-.84-.25c-2.49-1.54-5.32-2.11-8.08-2.91-1.62-.38-2.87-2.38-4.88-1.14h0c0-1.28-2.57-1.06-1.61-3.18l33.3,11.78c.29-15.22-2.17-29.88.21-44.51h1l.42,38c.07,2-.7,4.12.53,6l.5.66c.91-.75.25-1.71.35-2.57q0-.57,0-1.14Z"/><path class="cls-1" d="M832.65,387.7c1.07-11.92-.43-23.26-7.36-33.42-.49-.71-2.26-1.36-.55-2.61,3.34,2.51,4.09,7,7.45,9.54.23.17.51.65.43.83-2.1,4.81,1,4.92,4.38,5.08.78,0,1.32,1.5,2.55.91-6.48-1.59-6.4-1.52-5.37,4.55a132,132,0,0,1,1.46,27.15c-1.08.92-.29,3.5-2.8,3.14l.81-5.17c.88-1.93,1.72-3.85-1.09-5Z"/><path class="cls-1" d="M111.22,476.29c-1.35.07-3.34.08-5.3.32s-2.25-.75-2.44-2.27c-.24-2,1-2.36,2.41-2.24a71,71,0,0,0,13.36,0c1.1-.11,2.49,0,2.46,1.7,0,1.25-.6,2.38-2,2.44C117.11,476.38,114.48,476.29,111.22,476.29Z"/><path class="cls-1" d="M160.66,552.7q-27.19.16-54.39.32c-6.21,0-2.9-4.37-3.32-7.25.05,6.1,3.88,6,8.33,5.94,16.46-.26,32.93-.21,49.4-.28Z"/><path class="cls-1" d="M574.84,620.17l28.52-18.32.92,1.47-28.54,18.42Z"/><path class="cls-1" d="M849.48,354.74c.07-2.49.42-4.84,3-6.1-.89,1.29,1.5,2.53.79,2.69-2.28.5-1.42,1.6-1,2.8,1.56,4.76,5.44,7.21,9.44,9.55-.17.66.89,2.79-1.2,1.22-1.53-1.15-2,0-2.86.72-1.35-2.59-3.88-1.4-5.71-2,1.58-.78,2.26-1.76.43-3.42C850.76,358.8,849.26,357.18,849.48,354.74Z"/><path class="cls-1" d="M109.78,434.46c2.15,0,4.3,0,6.44,0,1.09,0,2.1.32,2.31,1.42.25,1.33-.59,2.16-1.89,2.41-4.91,1-9.88.36-14.82.48-1.37,0-1.35-1.12-1.44-2.13-.14-1.48.5-2.12,2-2.1,2.48,0,5,0,7.43,0Z"/><path class="cls-1" d="M101.88,539.28l-3.49-38,1-.09,3.42,38Z"/><path class="cls-1" d="M249.4,844.48C253,837.66,259.49,834,264.77,829l1.13,1.21-15.84,14.88Z"/><path class="cls-1" d="M851.61,339.25l-23.25-8.59.45-1.31a117.75,117.75,0,0,1,24.07,9.08Z"/><path class="cls-1" d="M97.28,487.66l-1.87-20.55,1.05-.1,1.64,20.66Z"/><path class="cls-1" d="M672.46,625.91c-6.38-2.27-8.08-7.4-4.21-12.66l.67.79-.08,2.75c-1.26,4.08.92,6.59,4,8.69Z"/><path class="cls-1" d="M949.51,506.63c3.44-.14,6.66.43,9.27,2.92l-.93,1c-3.64-1.91-7.44-.67-11.19-.59-.57-.2-1.33-.24-1.66-.63s.32-.67.65-.77C947,508.12,948.93,508.71,949.51,506.63Z"/><path class="cls-1" d="M952.9,335.46c2.9,3.47,6.15,6.73,6.46,11.92l-7.8-11.18Z"/><path class="cls-1" d="M564.66,460.75l-1,0q0-9.53,0-19.06h1Z"/><path class="cls-1" d="M718.64,430.2c.29,1.17.29,2.23-1.07,2.75l-2.86,1.23-1.06.51-8.85,3.49-.55-1.23Z"/><path class="cls-1" d="M95.68,449.6c-.57,1.53-1.36.44-2.08.18-.24-3.24.34-6.52,0-9.86Z"/><path class="cls-1" d="M618.67,477.77l-1,0c0-2.63-.24-5.29,0-7.9.19-2.17-.48-3.33-3.62-3.52,3.7-1.18,5.17-.9,4.76,2.58A80.1,80.1,0,0,0,618.67,477.77Z"/><path class="cls-1" d="M565.61,564.63l1,0q0,7.55,0,15.09l-1,0Q565.62,572.18,565.61,564.63Z"/><path class="cls-1" d="M817.65,350.69c-1.49-1,0-2-.1-3,2.51,1.09,5.77.83,7.15,4C822.15,352.76,820.15,349.83,817.65,350.69Z"/><path class="cls-1" d="M951.57,336.2c-1.67-1.1-2.48-2.87-3.5-4.48l.76-1.21c2.14,1,2.6,3.4,4.08,4.94Z"/><path class="cls-1" d="M482.89,266.44c1.59.69,3.8.47,4.2,2.89l-.87.76c-1.68-.49-4,0-4.35-2.61Z"/><path class="cls-1" d="M732.45,518.51a6.29,6.29,0,0,1,5.57-2.25c-1.29,2.06-3.17,2.12-4.49,3Z"/><path class="cls-1" d="M484.61,530.63l1,0q0,4,0,8h-1Z"/><path class="cls-1" d="M968.72,333.71c-.25-1.39-1.24-1.59-2.47-1.57l2.42,1.59Z"/><path class="cls-1" d="M183.7,552.19c-1.08-.14-2.24-.14-2.54-1.55l.37-1.28,1.17.14c.8.46,2.12-.76,2.48.46C185.43,550.83,184.59,551.7,183.7,552.19Z"/><path class="cls-1" d="M681.46,551.51a4.86,4.86,0,0,1,4.51-2c-.65,2.07-2.44,2.44-3.83,3.22Z"/><path class="cls-1" d="M682.14,552.77l-2.28,1.55-1.47-.87c.71-1.14,2-1.44,3.07-1.94Z"/><path class="cls-1" d="M485.47,545.65l-.24-.26-.35,0q0-2.21,0-4.42l.35,0,.24-.25Z"/><path class="cls-1" d="M607,600.85a2.32,2.32,0,0,1-.44.44c-.07,0-.34-.09-.35-.15a4.54,4.54,0,0,1,.06-.77Z"/><path class="cls-1" d="M728.54,324.66c5-1.07,7.87,1.25,9.17,5.94C734.78,328.41,730.37,328.52,728.54,324.66Z"/><path class="cls-1" d="M812.66,355.69c.52-1.71.81-3.59,3-4C815.37,353.52,815.65,355.83,812.66,355.69Z"/><path class="cls-1" d="M815.58,351.73c.37-.95.72-1.94,2-1C817.42,352,816.52,351.9,815.58,351.73Z"/><path class="cls-1" d="M499.67,326.72c-.81.33-2.07,2.17-2.19-.26-.08-1.56-.42-3.49,1.15-4.79C500.83,323,499.52,325,499.67,326.72Z"/><path class="cls-1" d="M800.16,565.76c.88-1.93-1.35-4.62,1.48-6.08,0,4.16.11,8.32.13,12.49,0,8.51,0,8.51,8.57,9.9-.91,1.39-2.46.24-4,1.32,4.12,3.09,8.75,4.94,13.2,6.86,9.24,4,17.95,9,27.11,13.16,2,.92,2,2.37,2.05,3.93.1,3.12,0,6.24,0,9.77,3.12-1.28,2-3.36,2.2-5-1.11,6-.94,6.23,4.91,5.43q36.2-5,72.39-10c6.39-.9,3.3-6.25,4-9.56.8-3.81-2.48-2.23-4.35-2.32a23.4,23.4,0,0,1-2.44-.46l6-.5c-1.83-2.64-4.55-2.87-6.72-4,.08-1.36,1.23-.92,2-1.16,6.24,1.7,8.6,5.64,7.14,12-1.11,4.8,1.82,5.41,5.49,4.89,22.65-3.23,45.29-6.54,68-9.66,2.54-.35,3.28-1.11,3.42-3.63.19-3.52,1.17-7-1.08-10.26-.84-1.23-.66-1.37.41-1.35,3.36.05,3,2.56,2.91,4.66a167.37,167.37,0,0,0,.72,21.76c.15,1.92.27,3.34,2.75,2.88-.67,1.71-2.36.46-3.21,1.36.35.93,1.77.08,1.94,1.4l-90.47,13.26q-47.74,7-95.48,13.94c-21.82,3.16-43.65,6.23-65.47,9.34l-1,.38h-2.21c.23-1.47-1.86-1.4-1.82-2.74,1.62-1.13,1.32-2.9,1.34-4.46.21-15.64.48-31.29.47-46.93,0-5.55-2.34-9.85-7.77-12.52-12.38-6.09-24.56-12.57-36.84-18.86-.59-.3-1.26-.39-1.23-1.25,2.5-1.05,4.73.35,6.47,1.48,9.64,6.25,20.53,10.08,30.3,16.08,3,1.87,6.41,3,8.46,6.35a4.07,4.07,0,0,0,5,2c-.77-1.4-2.11-1.08-2.13-.64-.41,9.24-1.25,18.49,0,27.73-.43,4.05-2.45,8.22.93,12,.1,1.32-.19,2.4,2.15,2.06,22.62-3.33,45.26-6.45,67.9-9.64,2.78-.39,5.58-1.39,8.32-1.24,4.53.24,4.39-2.34,4.64-5.59.45-5.88-1.21-9.45-7.14-12.09-13.65-6.06-26.69-13.45-40.49-19.24l-.91-.37.1.35a1.53,1.53,0,0,0,.24-.43c.26-1.45,2.52-1.85,2-3.72l0-2.08q0-1,0-1.9l-.08-1.11ZM762.28,641c0,7.47,0,7.49,6.78,6.51q49-7,98-14.13,67.19-9.81,134.37-19.75c9-1.32,8.79-1.3,9.25-10,.23-4.37-1-5.21-5.2-4.55-15.72,2.47-31.51,4.55-47.27,6.77l-60.1,8.43q-33.92,4.77-67.84,9.56-32.51,4.55-65,9c-2,.27-3,1.07-2.93,3.18C762.35,637.68,762.28,639.35,762.28,641Zm250.1-31.9-.27-.84a1.82,1.82,0,0,0,0,1.71Z"/><path class="cls-1" d="M896.86,515.07c8.53-1.55,17-3.32,25.68-4.17,3.73-.37,7.44-.92,11.16-1.39l1.81.51-.27,1.37Z"/><path class="cls-1" d="M735.64,631.72h-1V606.07h1Z"/><path class="cls-1" d="M887.69,572.91c-1.66-.59-1.35-2-1.41-3.29,1,.33.52-4.67,2.86-.68.79,1.36,3.59,1.54,5.44,2.24C892.67,573.5,890,572.46,887.69,572.91Z"/><path class="cls-1" d="M738.69,838.72q-54.18,6.11-108.36,12.23c-28,3.2-56.05,6.53-84.09,9.68-2.84.32-6,1.38-8.61-.92-3.68-10.61-8.41-20.79-13.07-31,.59-2.06,2.37-2,4-2.2,28.7-3,57.4-6,86.1-9,29.35-3.15,58.67-6.57,88-9.53,5.25-.53,10.63-3,16-.28-.66,1.69,0,3.38,0,5.07-4.89-.54-9.68.65-14.5.83-2.55.09-2.92,1.47-3.58,3.1-4-2.78-9.6-2.76-13,0-4.56-.84-9.19-2.08-13,2-3.25-2.69-6.88-.63-10.34-.79-.47,0-1.4.72-1.38,1.06a3.3,3.3,0,0,0,.93,2.14c1.75,1.52,9.11-.17,10.82-2.38,1.17-1.18,1.53.37,2.24.69,3.92,1.76,9.53.39,10.76-2.67,4.33,3,8.65,2.45,13,0,6.48.65,12.89.75,19-2,2.44-.93,2.06,1.53,2.95,2.45l-1.08.66c-3.65.39-7.72-1.62-10.84,1.88a18.14,18.14,0,0,0-13.06,1c-3.26,0-6.53,0-9.79.09-.8,0-1.87.12-1.95,1.1a2.92,2.92,0,0,0,.88,2.11c2.43,2.14,10.07-.2,10.9-3.27,4.26,3.72,11.39,3.14,13-1,3.72,3.6,8,2.17,11.87.79,2.87-1,3.24-.17,3.11,2.22-5.65-.32-11.17,1.16-16.77,1.31-2.58.07-3.76,1.36-4.25,3.66-3.52-3.88-11.32-3.28-13,1-3.2-3-7-1.89-10.69-1.53-.83.08-2,.43-1.86,1.12s1.09,2.06,1.78,2.12c3.7.33,7.56,1.16,10.8-1.67a19.83,19.83,0,0,0,13-1c6.3.53,12.49-.83,18.74-1.13,3-.15,3.65-1.29,2.3-3.84.95-1.1,2.07.2,3.07-.22-.11,4.23,5.23,5.85,4.88,10.19a29.3,29.3,0,0,0-5.5.68c-2.36.74-6.09-1-6.64,3.36-3.89-3.72-8.11-1.42-12.44-1,2.75,4,8.83,4.34,12.39.91,1.06-1.44,1.57.16,2.3.44,3.27,1.27,6.52.55,9.62-.44,2.66-.85-2.1-2.77.29-4,4.34-1.07,4.28,3.24,6.23,5.09l-.1.23Zm-67-14c-3.36-3.76-7.27-.51-10.9-.69-1.36-.07-1.13,1.66-.18,2.63,1.69,1.73,9.31.36,11-2,3.27,1.26,6.67,1.13,10.07.87.91-.07,2.3.16,2.49-1s-.57-2.56-1.68-2.62C678.63,821.74,674.52,821,671.64,824.72Zm-6.31,7.07c-2.77-3.42-6.48-1.81-9.86-1.74-.87,0-2.65-.29-2.42,1.49a2.24,2.24,0,0,0,2.37,2c3.42,0,6.88.13,10-1.7a31.15,31.15,0,0,0,10-.17c.9-.19,2.18.18,2.07-1.34A2.87,2.87,0,0,0,676,828C673.7,826.81,666.31,829.46,665.33,831.79Zm-45.69-1.09c4.35,1.22,8.63,1.5,13-.54-3.21-3.88-10.63-3.37-13.07.49-3.59-3.76-7.71-1.3-11.54-.74-1.35.2-.58,1.89.35,2.61C610.32,834,617.49,832.81,619.64,830.71Zm42.57,6.05c-3.45-1.41-7-1.26-10.55-.61-.7.13-1.88.06-1.68,1.29a2.92,2.92,0,0,0,1,1.68c2.09,1.65,9.64.12,11.35-2.24,4.09,3,8.32.81,12.63.58C672.84,832.87,666,832.64,662.21,836.76Zm26.42-2.07c.8-1.2,1.26,0,1.88.25,4,1.68,10.15-.11,11.34-3.29a6,6,0,0,0,5.6,2c6.38-.83,12.79-1.36,19.18-2.12,1.22-.14,3.52.74,3.24-1.53-.2-1.6-1.94-2.42-3.89-2.17-5.74.72-11.5,1.26-17.24,2-2.36.31-5-.4-7,1.73-.67,1.27-1.25.22-1.91,0-4.09-1.64-10.17.12-11.19,3.2-3.5-4.07-8-2-11.89-1.38-2.12.31.06,2.73.49,2.77C681.15,836.53,685.27,838.22,688.63,834.69Zm7,4c-.85,1.17-1.29,0-1.89-.32-3.54-1.87-10-.52-11.12,2.32a18.31,18.31,0,0,0-17.42,1.08c-3.63-1.89-7.25-.32-10.85.06q-27.67,3-55.3,6c.37,3,1.89,4,4.52,3.66,19.76-2.31,39.51-4.68,59.29-6.77,2.39-.25,1.79-1.82,2.49-2.86,4.52,3,14.34,2.34,17.31-1.16,4.83,2.67,11.55,1.64,13-2,4,3.53,8.27,1.52,12.52.71C706,835.11,699.27,834.75,695.63,838.69Zm19.59-27.92-.38-1.82c-61.67,6.6-123.37,13-185,19.83l.22,2ZM567.77,849.34c-2.27-4-12.75-3.85-29.69-.17.52,2.55,1.92,3.49,4.62,3.13C550.9,851.23,559.13,850.35,567.77,849.34Zm-9.48-4.64c-.25-3.46-1.88-4.11-4.71-3.67-4.72.74-9.51,1.09-14.25,1.72-1.28.17-3.5-.66-3.42,1.65.07,2,1.89,2.48,3.71,2.29Zm-21.61-3.23c4.54-.6,8.77-1.12,13-1.73,1.13-.16,3,.51,2.77-1.69-.22-1.7-1.45-2.44-3.23-2.2-4.23.57-8.48,1-12.69,1.69-1,.16-3.12-.6-2.72,1.73C534.08,840.89,535.1,841.92,536.68,841.47Zm49.69,11.9c2.11-.21,5.07-.48,8-.83,1.21-.14,3.08.33,2.95-1.67a2.58,2.58,0,0,0-3.15-2.42c-3.12.35-6.27.56-9.35,1.14-1,.19-3.18-.67-3,1.53C582.08,853.05,583.56,853.88,586.38,853.38Zm-33.16,3.9c-1.37-7-6.2-2.66-9.28-3.42-1.08-.26-3.38-.41-3.22,1.92s1.75,2.91,3.9,2.58C547.37,857.94,550.15,857.65,553.22,857.28Zm20.88-2.48v-.1a11.31,11.31,0,0,0,2.46,0c1.4-.32,3.84.65,3.77-1.78-.07-2.27-1.8-3.21-4.22-2.7-1.74.37-3.58.28-5.33.63-1.09.21-3-.36-2.79,1.78a2.74,2.74,0,0,0,2.76,2.37A23.2,23.2,0,0,0,574.09,854.79Zm-11.78-3c-1.78.32-3.55.71-5.34.92-1.2.14-2.34.07-2.23,1.81a1.94,1.94,0,0,0,2.31,2,24.54,24.54,0,0,0,5.86-.6c1.18-.34,3.56.72,3.46-1.58S564.37,851.54,562.31,851.8Zm11.94-3.13c1.76-.2,3.57-.35,5.37-.63.71-.11,1.86-.13,1.59-1.3-.42-1.81-1.72-3.2-3.53-2.3-2.58,1.29-7.05-1.84-7.82,2.58C569.42,849.6,572.65,848.15,574.25,848.67Zm27.91-3a10.81,10.81,0,0,0,2.46-.17c1.36-.41,3.81.41,3.6-2.07-.19-2.13-1.93-2.74-4-2.34-1.76.33-3.57.37-5.35.61-1.11.15-2.51.22-2.39,1.79a2.16,2.16,0,0,0,2.26,2.16Zm-24.86-3.1c2.34-.24,3.78-.09,4.94-.59,1-.43,3.16.51,2.92-1.55-.2-1.69-1.25-2.93-3.49-2.45-2.08.45-4.26.47-6.39.72-.91.11-2.25-.09-2,1.41.14.91.45,2.08,1.61,2.29A14,14,0,0,0,577.31,842.61Zm6.08-12.14c-.52-2.42-1.21-4.13-4-3.5-1.6.36-3.29.37-4.88.76-1.17.28-3.41-.94-3.17,1.67.2,2.19,2,2.37,3.74,2.14Zm52.39,7c3.62,7.49,8.68,1.64,12.55,2.85C645.39,833.51,640.45,838.63,635.77,837.42Zm-48.88,9.87,5.39-.72c.9-.12,2.19.29,2.2-1.21,0-1.24-.66-2.43-2-2.44a23.51,23.51,0,0,0-6.38.65c-1.08.3-3.56-.82-3.17,1.75C583.28,847.34,585.13,847.56,586.9,847.29Zm41.28-4.53a20.26,20.26,0,0,0,3.46-.34c1.19-.32,3.46.6,3.08-1.92-.29-1.94-1.7-2.64-3.71-2.29s-4,.35-5.9.67c-.82.13-2.36-.11-2,1.4.19.8.37,2.1,1.59,2.28A34.6,34.6,0,0,0,628.18,842.77Zm-11.25-2.94c-1.89,1-7-.79-6.81,2.31.22,4.27,4.59,1.86,7.32,1.64a1.7,1.7,0,0,0,.5,0c1.2-.51,3.5,1,3.55-1.36S619.68,839.44,616.92,839.83Zm-56.75-1.2c1.38-.8,5.68,1.18,5.56-1.44-.21-4.43-4.64-1.93-7.28-2.32a4.34,4.34,0,0,0-2.42.44c-.74.37-2.38.07-1.92,1.57A3.44,3.44,0,0,0,556,839C557.05,839.25,558.28,838.83,560.17,838.63Zm44.83.93v-.14c1.31-.06,2.75.2,3.88-.28,1-.41,3.05.46,2.81-1.57-.2-1.73-1.21-2.93-3.39-2.52s-4.2.47-6.29.72c-.93.11-2.26.11-1.93,1.48.19.8.36,2.1,1.53,2.28A22.7,22.7,0,0,0,605,839.56Zm-11.66-2.79c-1.86.7-6.61-.39-6.42,2.11.33,4.36,4.66,1.64,7.26,1.72,1.48.05,4.26,1.09,4.1-1.83C598.16,836.4,595.79,836.6,593.35,836.77Zm-13.82-.25c-1.95-6.62-6.51-1.77-9.58-2.74a1.85,1.85,0,0,0-2.52,1.64c0,1.49,1.09,2.35,2.72,2.17Zm19.4-1.94c1.93-.65,6.6.45,6.47-2-.26-4.85-4.61-1.35-7.13-1.84a1,1,0,0,0-.5,0c-1.26.49-3.75-.94-3.55,1.78C594.4,835,596.55,834.8,598.93,834.58Zm18.63,3.69c2.05-1.4,5.2.38,7.56-1.43.71-.54-.24-1.66-.74-2.09-2.47-2.15-5.33-.74-8-.46-.87.09-3-.49-2.88,1.57S615.25,838.4,617.55,838.27Zm-80.22-2.59c.26,0,1.59-.11,2.9-.33,1.15-.19,2.93.39,2.57-1.92-.3-1.91-1.33-2.36-3.16-2-2.11.37-4.28.4-6.42.65-1,.12-2.05.32-1.76,1.76.2,1,.48,1.95,1.83,1.9C534.28,835.65,535.27,835.68,537.34,835.68Zm26.88-3c1.32-1.19,5.53,1.36,5.49-1.61-.06-4.11-4.33-1.92-6.82-2.28a9.65,9.65,0,0,0-2.94.33c-1,.17-2.11.36-1.86,1.7a2.06,2.06,0,0,0,2,1.86C561.24,832.72,562.4,832.69,564.22,832.69Zm2.43,6.93a25.81,25.81,0,0,0-4.39.66c-1,.32-3-.13-2.52,2.11.38,1.78,1.85,1.64,3.08,1.62,2.28,0,4.56-.29,6.84-.46.86-.06,1.7-.31,1.87-1.28a2.07,2.07,0,0,0-1.44-2.31A14.91,14.91,0,0,0,566.65,839.63Zm-18.59-5.05,5.85-.88c1-.15,2.69.36,2.57-1.4a2.48,2.48,0,0,0-3-2.51c-2,.27-3.91.55-5.85.91-1.12.2-3.07-.59-2.77,1.66A2.44,2.44,0,0,0,548.06,834.57Zm83.78,2.09c2-.73,6.24.52,6.17-2.23-.09-4-4-1.75-6.32-1.76a17.94,17.94,0,0,0-3.47.22,2.24,2.24,0,0,0-1.42,1.13c-.38.89.32,1.57,1,2.08C628.91,837,630.3,836.61,631.84,836.67Zm-22.51-9.12c-1.41-3.47-1.42-3.48-8.3-2.83-1.25.12-3.16-.3-3.16,1.5,0,2,1.66,2.71,3.58,2.46C604.06,828.33,606.66,827.94,609.33,827.55Zm30.13,4.32c2.32,5.84,6.29,2.31,9.31,2.78,1,.15,2.68.52,2.69-1.23a2.47,2.47,0,0,0-2.87-2.68C645.67,831,642.74,831.46,639.47,831.87Zm-48-2.59c.63-.28,4.5,1.74,4.34-1.46-.19-3.81-4.11-1.59-6.41-2a2.8,2.8,0,0,0-1.9.32c-.94.68-3.07-.32-2.91,1.58s1.89,2.46,3.67,2.33A27.63,27.63,0,0,0,591.47,829.28ZM617.61,823c-1.48.54-6.52-.45-6.4,1.89.23,4.36,4.61,1.53,7.22,1.84a1.68,1.68,0,0,0,.49,0c1.32-.24,3.47.56,3.45-1.62C622.36,823.13,620.67,822.46,617.61,823Zm12.69-1.37v.22a20.18,20.18,0,0,0-3.48,0c-1.12.2-3.09-.43-2.91,1.64.15,1.72,1.6,2.36,3.31,2.23,2-.15,4-.24,6-.43.94-.09,2.27-.12,2.16-1.38a3.14,3.14,0,0,0-1.64-2.23C632.7,821.3,631.44,821.59,630.3,821.59Zm8.08,8.79c1.71-1.91,6.75,1,6.42-2.34-.4-4.19-4.75-1.81-7.42-1.44-1.21.17-3.62-.93-3.57,1.35S636.28,830.11,638.38,830.38Zm-51.63,5.14a13.4,13.4,0,0,0,2.61,0c1.11-.2,3.08.5,2.88-1.57-.16-1.66-1.57-2.32-3.3-2.1s-3.61.23-5.35.6c-.93.2-2.71-.24-2.58,1.38.11,1.46,1.56,2,3,2C584.79,835.79,585.6,835.64,586.75,835.52ZM637,821c2.78,6.55,7.63,1.28,12.19,3C645.65,816.52,640.69,822.42,637,821Zm14.81,7.78c2.13-.7,6.28.56,6.23-1.94-.08-3.68-4.1-1.81-6.48-2.07a15.22,15.22,0,0,0-2.95.27c-.82.08-1.81.1-1.91,1.12a2.12,2.12,0,0,0,1.6,2.23A20.78,20.78,0,0,0,651.82,828.8Zm4.05-6.16c1.5-.58,5.33,1,5.31-1.55,0-3.79-3.94-2.08-6.32-2.25a11.59,11.59,0,0,0-2.93.29c-.9.17-2.15.21-1.94,1.56a2.12,2.12,0,0,0,1.93,1.93C653.06,822.7,654.21,822.64,655.87,822.64Z"/><path class="cls-1" d="M613.85,858.39c-6.11.69-6.15.71-3.44,6,2.26,4.43,4.75,8.74,6.9,13.22,1.34,2.79,3,3.71,6.23,3.31,21.4-2.63,42.83-5,64.24-7.46a24.52,24.52,0,0,0,5.33-1.13c1.09-.39,2.4-1.4,2.88,0,.61,1.84-1.36,2-2.55,2.2-6.08.8-12.18,1.46-18.28,2.18-16.63,2-33.27,3.88-49.88,6-4.86.61-8.41.25-10.36-5.36-1.78-5.1-5-9.69-7.37-14.6-.66-1.37-2.84-2.69-1.53-4.28s3.89-1.53,6-1.21C612.67,857.38,613.21,858,613.85,858.39Z"/><path class="cls-1" d="M650.12,854.27c-8.11.45-14.88,2.17-21.86,1.43C635.1,854.8,641.82,852.38,650.12,854.27Z"/><path class="cls-1" d="M683,851.47H671.83l.07-1.27c3.67.37,7.67-3.2,11,1.33Z"/><path class="cls-1" d="M682.88,851.54c.08.76,1.34,1.14.71,2.1a.9.9,0,0,1-.8-.06c-.37-.71-.72-1.48.21-2.1Z"/><path class="cls-1" d="M251.58,808.21c-6.52-.24-12.35-2.91-18.31-5.12A55.89,55.89,0,0,1,251.58,808.21Z"/><path class="cls-1" d="M286.05,818.82c-4.23-.2-7.85-2.22-11.68-3.65,4.21-.5,7.83,1.48,11.68,2.4Q286.05,818.2,286.05,818.82Z"/><path class="cls-1" d="M268.47,813.22c-4,.46-7.3-1.47-10.74-3.07C261.49,810.4,265.17,810.91,268.47,813.22Z"/><path class="cls-1" d="M256.12,809.28c-.13,0-.27.15-.38.12s-.19-.19-.28-.3a1.6,1.6,0,0,1,.41,0C256,809.11,256,809.21,256.12,809.28Z"/><path class="cls-1" d="M423.89,288.44c7.4,6.91,10.74,15.84,12.91,25.44,1.08,4.81,2.59,9.53,3.9,14.29l-1.3.79c-2.55-5.35-3.68-11.16-4.83-16.86-1.79-8.88-6.15-16.18-11.94-22.84Z"/><path class="cls-1" d="M387.75,289.75c-1.91-3.53-4.6-1.63-7.11-1a7.6,7.6,0,0,0-7,2.44c-.75-.1-1.51-.21-2.05.52a18.52,18.52,0,0,1-4,.11c-2.17-.4-1.25-1.28-.11-2,2.86-4.06,7.69-1,11.09-3.06l15.19-1.25c1.6-.14,3.5.39,3.64,1.75.2,1.93-2,1.76-3.37,2C392,289.49,389.87,289.57,387.75,289.75Z"/><path class="cls-1" d="M459.94,303.52c-1.93-1.85,5.78-1.65.34-4.06,4.83-.37-1-6.86,4.27-7.28,3.85-.3,6.43.65,7.18,4.61.78,4.11-1.49,6.56-6,7.15A18.35,18.35,0,0,1,459.94,303.52Zm6.84-8.87c-2.23.14-2.83,1.82-2.93,3.62s.76,3.77,2.45,3.54c1.94-.27,4-1.7,3.82-4.27A2.85,2.85,0,0,0,466.79,294.65Z"/><path class="cls-1" d="M412.72,307.24c-2.55,2.33-2.79,4.49-1,8.91l-1.45.88a3.61,3.61,0,0,0-.71-.23c-.15-2-2.28-2.43-3-4,.32-1.17,2.35-.93,1.86-3.09-.64-2.83.65-5.61,2.29-8.05C412.35,303.2,413.83,304.76,412.72,307.24Z"/><path class="cls-1" d="M447.44,326.72a37,37,0,0,1-4.29-18.58Z"/><path class="cls-1" d="M465.66,317.77c-5.12-4-3.76.69-4.11,3.07-1.73-.66-1.76-.67-1.53-2.73.17-1.51-.47-3.58,2.25-3.5,4.59.15,9-1.69,14.15-1.12-2.44,1.59-4.89,1-7.09,1.49C467.75,315.32,465.36,314.85,465.66,317.77Z"/><path class="cls-1" d="M422.61,289.26A56,56,0,0,1,409,283c5.45.45,10.12,3.06,14.85,5.49Z"/><path class="cls-1" d="M406.18,299.63c-5.05,5.32-4.2-2.47-6.63-3,2.5-2.5,3.27-2.67,4.13-.26C404.24,297.93,405.37,298.55,406.18,299.63Z"/><path class="cls-1" d="M439,295.41c-.25-3.3-2.28-6.35-.86-11.19l2.09,11.07Z"/><path class="cls-1" d="M440.69,328.17l7.42,5c-4.49-.28-6.42-2.64-8.73-4.24Z"/><path class="cls-1" d="M410.68,301.59c-1.58,1.1-2.69.53-3.55-1C408.48,300.33,409.9,299.8,410.68,301.59Z"/><path class="cls-1" d="M282.53,338c-1.86-.63-3.95.48-6.26-1,5.06-.52,10-.5,12.55-5.45-1.48-1.4-3.53.2-4.65-1.44.14-.31.28-.81.39-.81,7.22.34,7.92-.43,9.06-7.92A33.19,33.19,0,0,0,289,298.19c-2.49-4.05-6.87-5.72-10.32-8.54-.09-2.16,2.87-.12,2.91-2.11,14.43,8.4,18,31.41,11,44.18-1.74,3.17-4.13,5.71-8,6.3Zm.41-45.92-.29.31.31.28.28-.45Z"/><path class="cls-1" d="M274.94,297.15c.65,2.81,1.72,3.64,0,6.07-3.32,4.81-2.59,10.54-.17,15.88.26.58.57,1.13.81,1.72,0,.11-.09.3-.14.45-3-1.8-3.91-5.45-4.42-11.15C270.66,305.6,272.61,302.17,274.94,297.15Z"/><path class="cls-1" d="M307.7,287.22c2,.77,3.37,2.8,5.78,2.58h0c-.47,2,2,1.4,2.38,2.64l-.78,1.31-10.47-5.06-1.07-.53L302,286.53l2.64,0,2,.21Z"/><path class="cls-1" d="M323.54,348.62c-1.92,1.48-3.48,3.71-6.41,3.09l.47-2.07c.79-.15,1.88.55,2.24-.8l-1.3-1.87a1.19,1.19,0,0,0,.74-.4c.83,1.33,1.68,2.63,2.22-.14a13.5,13.5,0,0,0,.07-2.26l3.74.28.42.33C325,346,323.25,346.76,323.54,348.62Z"/><path class="cls-1" d="M317.18,305.63c-.54,2.09-3.06-.84-3.55,1.4l-1-.14-.14-.17c.48-1.23-.88-3.2.36-3.63C314.7,302.44,315.94,304.36,317.18,305.63Z"/><path class="cls-1" d="M307.69,300.34c2.28-.29,3.78,1,5.77,2.67A5.44,5.44,0,0,1,307.69,300.34Z"/><path class="cls-1" d="M317.7,322c-2.07.44-3.24-.4-3.54-2.48C316.69,318.47,317.13,320.35,317.7,322Z"/><path class="cls-1" d="M321.27,297.14,317.39,295l.76-1.31c1.16,1,3.1,1.06,3.7,2.84Z"/><path class="cls-1" d="M317.39,295c-.95-.06-1.86-.18-2.28-1.21l.78-1.31c.91.12,1.81.24,2.27,1.21Z"/><path class="cls-1" d="M312.17,315.62c.07,1.2-.41,1.47-1.13,1.29s-1.31-.21-1.34-1.08.46-1.21,1.17-1A4.58,4.58,0,0,1,312.17,315.62Z"/><path class="cls-1" d="M311.73,351.69c-1.58-.43-2.5-1.29-2.06-3.07C311.22,349.06,311.46,350.39,311.73,351.69Z"/><path class="cls-1" d="M309.73,348.69c-1.51-.47-2.68-1.17-2.05-3.07C309.22,346.07,309.49,347.37,309.73,348.69Z"/><path class="cls-1" d="M320.2,308.7c-2,.31-3.34-.08-2.51-2.56Z"/><path class="cls-1" d="M324.53,330.2a2.21,2.21,0,0,1-1.69-2.11c0-.22.47-.64.68-.61,1.17.17,1.39,1.17,1.62,2.11Z"/><path class="cls-1" d="M307.72,345.65l-1.1.1c0-.57-.29-1.31.65-1.28C307.43,344.47,307.57,345.23,307.72,345.65Z"/><path class="cls-1" d="M305.68,251.15c.54.65,2.57.17,1.83,1.44-.53.92-2.2.38-3.12-.62Z"/><path class="cls-1" d="M371.68,315.53a1.1,1.1,0,0,0,.9-.05c.64.11.91-.23,1-.81,7.74.88,11.36,6.51,13.72,12.84,2.57,6.92,3,14.17-.48,21.08-3.38,6.71-4.79,7.35-12.13,6.27l-2.23-.15c3-2.21,7.68-.7,10.43-5.44-9.77,2.5-11-5.45-13.48-10.85-2-4.46-2.35-9.89,2.37-13.8.06.43,0,1,.68.86.09,0,.1-.53.15-.81a.76.76,0,0,0,.18-.67c1.57,1.36,3.43.46,5.15.61,2.7.23,2.82,1.61,1.74,3.61-2.08-1.65-4.21-2.59-6.71-.76a7.53,7.53,0,0,0-2.86,7c.51,6.81,3.76,8.94,11.7,8.18l0,1.12c-1.07,2.08-3.65.79-5,2.2,5.1,4,8,3,9.13-3.06l-.16-.09c1.32-.64,1.18-1.21-.07-1.73-2.39-.62,1.51-5-2.67-4.52l-.08-1.72c5.34-1.36-1.13-2.65-.45-3.22v2.78l-1.39-4.62c3.91.89,5.18-.69,3.27-4.09a17.22,17.22,0,0,0-8-7.58c-2.24-1.56-4.91-1.16-7.39-1.61C369.63,315.49,370.73,315.74,371.68,315.53Z"/><path class="cls-1" d="M406.53,312.76l-11.84-3.12L392.53,308l-4-.29c.11-2.86,2.1-2.46,3.8-2,2.64.74,5.16,2,7.82,2.58,2.16.49,7.39,4.08,2.86-4.6C406.94,307.12,407.31,309.75,406.53,312.76Z"/><path class="cls-1" d="M394.16,315.76c1.77-2.64,3.72,1,5.53-.15l0,0,4,2.85c1,.43,2,.87,2,2.18-1,.18-2,2.18-2.73.65-1.12-2.29-2.9-1.32-4.45-1.61C399.8,315.38,394.83,318,394.16,315.76Z"/><path class="cls-1" d="M402.65,328.73l-1,0c-.71-1.36-3.3-.89-3.08-3.16C400.48,325.9,402.66,325.91,402.65,328.73Z"/><path class="cls-1" d="M403.59,343.72l-.29-2.1-.27-1.78c2.06.82,5.46,1.12,1.61,4.21Z"/><path class="cls-1" d="M399.59,347.6h1.09c.06,1.44,2.9,2.24,1,4.15A3.38,3.38,0,0,1,399.59,347.6Z"/><path class="cls-1" d="M400.39,336.69c1.43.38,2.94.72,1.19,2.57A2.28,2.28,0,0,1,400.39,336.69Z"/><path class="cls-1" d="M349.55,292.77c5.73,2.36,10-2.72,15.23-3,1.07.78.45,1.4-.29,1.8-2,1.09-4.43,1.73-6.09,3.2C354.27,298.46,351.82,296.38,349.55,292.77Z"/><path class="cls-1" d="M350,304.84c-1.28-.36-1.09-1.05-.9-1.6s.43-1.63,1.46-1.47.58.93.38,1.43A11.64,11.64,0,0,1,350,304.84Z"/><path class="cls-1" d="M352.54,297.9c.46,2.17.42,3.64-.66,3.83s-.7-1.08-.44-1.8A20,20,0,0,1,352.54,297.9Z"/><path class="cls-1" d="M364.71,289.86c.93-1.94,1.89-2.07,2.9-.05C366.65,290.18,365.7,291.34,364.71,289.86Z"/><path class="cls-1" d="M331.59,306.71c.27-1.22.94-1.63,2.1-1C333.42,306.89,333.09,308,331.59,306.71Z"/><path class="cls-1" d="M346.29,269.53c-.76-5.13-.34-10.26.06-15.39Z"/><path class="cls-1" d="M359.55,195.71c8.07-.27,16.17.14,24.22-.92.9.89.36,1.69-.5,1.73-7.37.31-14.74.52-22.12.68A1.45,1.45,0,0,1,359.55,195.71Z"/><path class="cls-1" d="M399.73,302.6c1.21.43,2.87-1.17,4,1.3-1.71-.06-3.13.35-4.37-.92Z"/><path class="cls-1" d="M401.68,305.61l-.82-.47c.28-.14.55-.41.83-.4s.54.27.81.42Z"/><path class="cls-1" d="M407.46,303.21l-.34.36c-.11-.13-.3-.26-.29-.38s.21-.23.33-.35Z"/><path class="cls-1" d="M325.32,344.46a2.07,2.07,0,0,1,1.37-2.31c.54-.19,1,.1.91.61a2.71,2.71,0,0,1-1.87,2Z"/><path class="cls-1" d="M844.6,284.61c-.59-.45-1.88.65-2-.89,4.7.91,9.39-.6,14.09-.05-2.07,2.25-4.83.34-7.13,1.19A9.13,9.13,0,0,0,844.6,284.61Z"/><path class="cls-1" d="M758.83,298.87c-.58,1.65-1.56,3.28-1.63,4.94-.08,2-1,1.93-2.1,1.33-.89-.48-2.15-1.27-.91-2.69s2.35-3.16,4.26-3.95Z"/><path class="cls-1" d="M744.56,318.34,754.4,323l-1,1.69c-2.44-3.57-8.07-1.1-9.82-6Z"/><path class="cls-1" d="M749.75,301.72c-1.63-1-.87-2.68-1.14-4.06l3.17,1.16C752.81,301,750.53,300.84,749.75,301.72Z"/><path class="cls-1" d="M751.73,298.85c.85-1.5,1.7-1.57,2.8-.23C753.57,298.43,752.77,300.07,751.73,298.85Z"/><path class="cls-1" d="M729.05,532.48a25.62,25.62,0,0,1-10,5.5C721.69,533.6,725.31,532.93,729.05,532.48Z"/><path class="cls-1" d="M410.67,334.71c-3,.67-6.5-1.93-8.06-6C406.64,328.9,408.57,331.91,410.67,334.71Z"/><path class="cls-1" d="M415.65,336.68c1,2.54,1.69,5-1,7.05-2-2.11-1.17-4.61-1-7Z"/><path class="cls-1" d="M413.62,336.69c-1.4,1.1-1.83.26-2-1C412.5,335.56,413.47,335.3,413.62,336.69Z"/><path class="cls-1" d="M411.68,335.74c-.72,0-1.71.28-1.06-1.07C411.28,334.72,411.83,334.88,411.68,335.74Z"/><path class="cls-1" d="M414.66,343.69v2.05a1.37,1.37,0,0,1-1.7-1.66A.91.91,0,0,1,414.66,343.69Z"/><path class="cls-1" d="M408.1,343.84c.2.4.56.82.54,1.21a.53.53,0,0,1-.94.32,4.26,4.26,0,0,1-.52-1.2Z"/><path class="cls-1" d="M411,347.92l-.56.59a4.34,4.34,0,0,1-.83-.84c-.34-.61.43-.91.59-.82C410.59,347.06,410.78,347.54,411,347.92Z"/><path class="cls-1" d="M411.75,316.14c1.07,3.92.54,5.1-2,4.55l-.15-1.12c1.64-.45.32-1.76.74-2.56Z"/><path class="cls-1" d="M492.77,300.14a5.53,5.53,0,0,1,.88,1.6c.22,1.31,1.07,3.42-.73,3.6-2.33.23-.83-2.26-1.42-3.4a3.88,3.88,0,0,1-.22-.94Z"/><path class="cls-1" d="M826.69,381.23a2.22,2.22,0,0,1-1.14-3.15,1.3,1.3,0,0,1,1.17-.51c1.34.47.74,1.92,1.27,2.83Z"/><path class="cls-1" d="M722.6,817.17c.71.66,1.86,1.59.84,2.31-.82.58-1.38-.92-1.92-1.65Z"/><path class="cls-1" d="M719.63,814.68c-1.31-.18-1.21-1.08-1-2C719.79,812.9,720.57,813.36,719.63,814.68Z"/><rect class="cls-1" x="311.81" y="469.05" width="2" height="128.48" transform="translate(-35.59 22.54) rotate(-3.91)"/><polygon class="cls-1" points="487.84 618.92 483.9 470.13 298.93 455.85 299.09 453.85 485.85 468.27 489.84 618.87 487.84 618.92"/><polygon class="cls-1" points="565.56 624.53 563.65 440.97 564.3 440.72 748.25 370.39 748.96 372.26 565.67 442.34 567.56 624.51 565.56 624.53"/><polygon class="cls-1" points="564.28 442.58 390.96 371.09 613.65 315.81 614.13 317.75 397.36 371.56 565.04 440.73 564.28 442.58"/><rect class="cls-1" x="390.18" y="362.09" width="2" height="9.03" transform="translate(-21.78 24.72) rotate(-3.52)"/><path class="cls-1" d="M619.61,566.19c-.65,0-.82,0-1.08-16-.13-8.23-.24-19.71-.32-34.12-.14-24.52-.16-49.36-.16-49.61v-.32l34.8-16.44.43.9-34.22,16.17c0,27,.23,96.32,1,98.7l-.43.14Z"/><rect class="cls-1" x="649.21" y="464.87" width="1" height="109.56"/><polygon class="cls-1" points="693.15 513.7 692.15 513.7 692.15 433.89 720.24 419.51 720.69 420.4 693.15 434.5 693.15 513.7"/><rect class="cls-1" x="717.44" y="430.53" width="1" height="67.39"/><rect class="cls-1" x="92.33" y="409.54" width="1" height="35.12" transform="translate(-42.86 11.63) rotate(-5.82)"/><rect class="cls-1" x="98.03" y="453.04" width="1" height="96.48" transform="translate(-40.35 9.65) rotate(-4.65)"/><rect class="cls-1" x="158.36" y="551.69" width="25.34" height="1"/><path class="cls-1" d="M447.93,272.52l-.15-.14c-20.38-18.73-79.64-26.49-80.23-26.56l.13-1c.6.08,59.88,7.83,80.63,26.68l37.89-1.91.05,1Z"/><rect class="cls-1" x="449.01" y="271.98" width="1" height="53.6" transform="translate(-14.95 23.82) rotate(-2.99)"/><path class="cls-1" d="M812.71,287.45l-.11-1a613.88,613.88,0,0,1,83.11-2.76l0,1A612.72,612.72,0,0,0,812.71,287.45Z"/><path class="cls-1" d="M802.07,309.23c-1.18-6.82-3.26-17.4-4.18-18.63-1.09-1.46-10.53-3.78-22-2.16l-.14-1c11-1.56,21.33.44,22.91,2.55,1.36,1.81,4.06,17.3,4.36,19.06Z"/><rect class="cls-1" x="822.92" y="275.67" width="28.71" height="1" transform="translate(-10.15 32.92) rotate(-2.24)"/><polygon class="cls-1" points="732.24 593.57 731.99 593.44 669.04 560.58 669.97 558.8 732.67 591.54 748.9 588.93 749.02 590.92 732.24 593.57"/><rect class="cls-1" x="734.13" y="595.28" width="2" height="65.67" transform="translate(-10.1 12.02) rotate(-0.93)"/><rect class="cls-1" x="761.83" y="574.6" width="200.67" height="2" transform="translate(-68.81 119.6) rotate(-7.63)"/><polygon class="cls-1" points="762.53 619.88 762.24 617.9 1007.54 581.45 974.79 570.14 975.45 568.25 1015.92 582.23 762.53 619.88"/><rect class="cls-1" x="907.56" y="559.28" width="2" height="41.08" transform="translate(-30.78 1108.32) rotate(-61.91)"/><rect class="cls-1" x="862.63" y="544.43" width="49.44" height="2" transform="translate(331.57 1426.33) rotate(-89.33)"/><rect class="cls-1" x="1022.41" y="621.04" width="2" height="18.94"/></svg>