<svg id="Logo" xmlns="http://www.w3.org/2000/svg" viewBox="0 0 32 32"><defs><style>.cls-1{fill:#231f20;}</style></defs><title>logo</title><path class="cls-1" d="M15.62.34a15.65,15.65,0,0,0-2.66,31,.34.34,0,0,0,.41-.38c-.65-4.51-4.82-9.85-4.74-14.73.17-10.49,10.48-14,10.48-14s-1.45,2.9-1.13,5,2.31,5,.05,7.8c-2.78,3.44-3.19,4.21-3.21,4.37l0,0s0,0,0,0a8,8,0,0,1-2-5.82,20.33,20.33,0,0,1,1.77-5.86,11,11,0,0,0-3.12,9.57c.83,4.7,4.83,8.82,5.26,13.85a.48.48,0,0,0,.52.43A15.64,15.64,0,0,0,15.62.34Zm6.71,18.19c-.22,1.13.15,2.61-1,4A15.26,15.26,0,0,1,18,24.61a9.73,9.73,0,0,1,.32-3.49,7.39,7.39,0,0,1,2.26-3.17A6.71,6.71,0,0,0,17,21.11c-.89,1.83-.7,5.21-.7,5.21s-2.63-3.9.22-7a9.8,9.8,0,0,1,7.42-3.23A5.93,5.93,0,0,0,22.33,18.53Z"/></svg>